<svg xmlns="http://www.w3.org/2000/svg" xmlns:xlink="http://www.w3.org/1999/xlink" xmlns:inkscape="http://www.inkscape.org/namespaces/inkscape" version="1.1" width="612" height="792" viewBox="0 0 612 792">
<defs>
<clipPath id="p4-clip_1">
<path transform="matrix(1,0,0,-1,0,792)" d="M.00000912 0H612V792H.00000912Z" clip-rule="evenodd"/>
</clipPath>
<path id="p4-font_2_18" d="M.5058594 .08984375C.5058594 .084635417 .5056966 .080078128 .5053711 .076171878 .5050456 .072265628 .5044759 .068847659 .5036621 .06591797 .5028483 .06298828 .50179037 .060384115 .5004883 .05810547 .4991862 .055826826 .49690757 .053044637 .49365235 .04975891 .49039714 .046483358 .4835612 .041483564 .47314454 .03475952 .46272788 .028035483 .44978843 .021474204 .43432618 .015075684 .41886393 .008677165 .40112306 .0032653809 .38110353-.001159668 .36108399-.005594889 .33919273-.0078125 .3154297-.0078125 .27441407-.0078125 .23738607-.0009765625 .2043457 .0126953129 .17130535 .026367188 .14314778 .04654948 .11987305 .07324219 .096598308 .0999349 .078694667 .13289388 .06616211 .17211914 .05362956 .2113444 .04736328 .2565104 .04736328 .3076172 .04736328 .36002604 .05411784 .40673829 .06762695 .4477539 .08113607 .48876954 .100097659 .52351889 .12451172 .55200198 .14892578 .58048507 .17814128 .60221359 .2121582 .6171875 .24617513 .63216146 .28385417 .63964846 .3251953 .63964846 .34342448 .63964846 .36116538 .6379242 .37841798 .6344757 .39567057 .6310272 .4116211 .62667849 .42626954 .62142947 .44091798 .6161804 .4539388 .6101074 .46533204 .60321047 .47672526 .59632369 .48461915 .59066268 .48901368 .5862274 .4934082 .58180239 .4962565 .5784505 .4975586 .5761719 .4988607 .57389327 .4999186 .5712077 .5007324 .56811526 .5015462 .56502279 .50219729 .56136068 .50268557 .5571289 .5031738 .55289718 .50341799 .54785159 .50341799 .5419922 .50341799 .53548178 .50309249 .52994796 .5024414 .5253906 .50179037 .5208333 .5008138 .5170085 .49951173 .513916 .49820964 .51082357 .49666343 .5085449 .49487306 .5070801 .49308268 .50561526 .4908854 .5048828 .48828126 .5048828 .48372398 .5048828 .4773763 .5080821 .46923829 .5144806 .46110026 .5208791 .4506022 .5279338 .43774415 .53564456 .42488609 .5433553 .40926109 .55041 .39086915 .5568085 .3724772 .563207 .3504232 .56640627 .32470704 .56640627 .29671226 .56640627 .27124024 .560791 .24829102 .54956057 .2253418 .5383301 .20572917 .5218099 .18945313 .5 .17317708 .4781901 .16056316 .45157878 .15161133 .42016603 .1426595 .38875328 .1381836 .3528646 .1381836 .3125 .1381836 .27246095 .14249675 .23706055 .15112305 .20629883 .15974935 .17553711 .17211914 .14982097 .18823242 .12915039 .2043457 .10847982 .2241211 .09285482 .2475586 .08227539 .2709961 .07169596 .29752604 .06640625 .32714845 .06640625 .35221354 .06640625 .37410484 .06952413 .39282228 .07575989 .4115397 .08199564 .42749024 .08896891 .44067384 .09667969 .45385743 .104390468 .464681 .11136373 .47314454 .11759949 .48160807 .12383524 .48828126 .12695313 .49316407 .12695313 .49544273 .12695313 .49739585 .12646485 .49902345 .12548828 .50065109 .12451172 .5019531 .12263998 .5029297 .11987305 .50390627 .11710612 .5046387 .11328125 .50512698 .10839844 .50561526 .103515628 .5058594 .09733073 .5058594 .08984375Z"/>
<path id="p4-font_2_856" d="M.17871094 .052978517C.17871094 .02976481 .17488607 .01431783 .16723633 .0066375734 .1595866-.001042684 .14567058-.0048828127 .12548828-.0048828127 .10595703-.0048828127 .092447917-.0011240641 .08496094 .0063934328 .07747396 .01391093 .07373047 .02895101 .07373047 .051513673 .07373047 .07472738 .077555339 .090174358 .08520508 .097854617 .09285482 .105534877 .106770839 .109375 .12695313 .109375 .14648438 .109375 .15999349 .10561625 .16748047 .098098758 .17496746 .09058126 .17871094 .075541179 .17871094 .052978517Z"/>
<path id="p4-font_2_1005" d="M.45263673 .033203126C.45263673 .027018229 .45214845 .021809897 .45117188 .017578125 .4501953 .0133463549 .44889323 .009928386 .44726563 .0073242189 .44563804 .0047200524 .44376628 .0028483074 .4416504 .0017089844 .43953453 .00056966146 .43733726 0 .4350586 0H.10498047C.10270182 0 .10058594 .00056966146 .09863281 .0017089844 .09667969 .0028483074 .094807948 .0047200524 .09301758 .0073242189 .09122721 .009928386 .08984375 .0133463549 .08886719 .017578125 .087890628 .021809897 .087402347 .027018229 .087402347 .033203126 .087402347 .0390625 .087890628 .044108076 .08886719 .048339845 .08984375 .052571615 .09106445 .056070966 .0925293 .05883789 .09399414 .061604818 .09578451 .0637207 .09790039 .06518555 .10001627 .06665039 .102376308 .06738281 .10498047 .06738281H.2368164V.54833987L.114746097 .47509767C.108561199 .47184245 .10359701 .4698893 .099853519 .46923829 .09611002 .46858726 .09309896 .46931968 .09082031 .47143556 .088541667 .47355143 .086995448 .47705589 .08618164 .48194886 .085367839 .48685203 .08496094 .49305726 .08496094 .5005646 .08496094 .5061188 .08520508 .51085409 .08569336 .5147705 .08618164 .51868698 .08691406 .52195236 .087890628 .52456668 .08886719 .52718099 .09025065 .5294647 .092041019 .53141787 .09383138 .53338119 .096191409 .53533938 .099121097 .5372925L.2446289 .6308441C.24593099 .6318207 .2475586 .63263449 .24951172 .6332855 .25146485 .6339467 .25390626 .63460287 .25683595 .6352539 .25976563 .63590499 .2631836 .6363118 .26708985 .6364746 .2709961 .6366374 .2758789 .63671877 .28173829 .63671877 .28955079 .63671877 .2960612 .63639327 .30126954 .6357422 .30647788 .6350911 .31054688 .634196 .31347657 .63305667 .31640626 .6319173 .31835938 .6304474 .31933595 .62864688 .3203125 .6268565 .32080079 .62498477 .32080079 .6230316V.06738281H.4350586C.43766276 .06738281 .44010417 .06665039 .4423828 .06518555 .44466148 .0637207 .4465332 .061604818 .44799806 .05883789 .4494629 .056070966 .4506022 .052571615 .45141603 .048339845 .45222984 .044108076 .45263673 .0390625 .45263673 .033203126Z"/>
<path id="p4-font_2_3" d=""/>
<path id="p4-font_2_104" d="M.55908206 .23309326C.55908206 .19465129 .5534668 .16036479 .5422363 .13023377 .53100588 .100102748 .51497396 .07461039 .49414063 .053756715 .47330729 .032913209 .44791667 .017115275 .41796876 .006362915 .38802085-.004389445 .3540039-.009765625 .31591798-.009765625 .28108726-.009765625 .24934896-.004714966 .22070313 .0053863527 .1920573 .015487671 .16748047 .03039042 .14697266 .050094606 .12646485 .06979879 .110677089 .09447225 .099609378 .12411499 .088541667 .1537679 .08300781 .1879781 .08300781 .2267456V.61912539C.08300781 .62172958 .08365885 .6240082 .08496094 .6259613 .08626302 .6279246 .088541667 .6294759 .091796878 .63061526 .095052089 .6317546 .09928385 .63273116 .10449219 .6335449 .10970052 .6343587 .11653646 .6347656 .125 .6347656 .1328125 .6347656 .13948567 .6343587 .14501953 .6335449 .15055339 .63273116 .15486653 .6317546 .15795899 .63061526 .16105144 .6294759 .1632487 .6279246 .16455078 .6259613 .16585286 .6240082 .1665039 .62172958 .1665039 .61912539V.236969C.1665039 .2076416 .17008464 .18206279 .1772461 .16023255 .18440755 .13841248 .19474285 .12024943 .20825196 .10574341 .22176107 .09124756 .23803711 .080332439 .25708009 .07299805 .27612306 .06567383 .29752604 .06201172 .32128907 .06201172 .34570313 .06201172 .36743165 .065592449 .3864746 .072753909 .40551759 .07992554 .42163087 .090677898 .43481446 .10501099 .44799806 .11935425 .4580892 .1371104 .4650879 .15827942 .47208659 .17945862 .47558595 .20422364 .47558595 .23257447V.61912539C.47558595 .62172958 .47623698 .6240082 .47753907 .6259613 .47884117 .6279246 .48111979 .6294759 .484375 .63061526 .48763023 .6317546 .49194337 .63273116 .49731446 .6335449 .50268557 .6343587 .5094401 .6347656 .5175781 .6347656 .5253906 .6347656 .5319824 .6343587 .5373535 .6335449 .5427246 .63273116 .54695639 .6317546 .5500488 .63061526 .5531413 .6294759 .5554199 .6279246 .55688479 .6259613 .5583496 .6240082 .55908206 .62172958 .55908206 .61912539V.23309326Z"/>
<path id="p4-font_2_400" d="M.35058595 .13148499C.35058595 .1090037 .34643556 .08896383 .33813478 .07136536 .32983399 .053777059 .31803385 .038950605 .30273438 .026885987 .2874349 .014831543 .26920573 .0057118737 .24804688-.00047302247 .22688802-.006668091 .20361328-.009765625 .17822266-.009765625 .16259766-.009765625 .14770508-.008544922 .13354492-.0061035158 .119384769-.0036621094 .10668945-.00056966146 .095458988 .0031738282 .084228519 .006917318 .07470703 .010823567 .06689453 .014892578 .05908203 .018961588 .053385419 .022623698 .049804689 .025878907 .046223958 .029134116 .043619794 .033691408 .041992189 .03955078 .040364583 .045410158 .03955078 .053385419 .03955078 .06347656 .03955078 .06966146 .0398763 .07486979 .040527345 .07910156 .041178388 .083333339 .041992189 .086751308 .04296875 .08935547 .043945314 .09195963 .045328779 .09383138 .04711914 .0949707 .048909505 .09611002 .05094401 .09667969 .053222658 .09667969 .056803388 .09667969 .062093099 .09448242 .0690918 .09008789 .07609049 .08569336 .0847168 .08089193 .0949707 .075683597 .10522461 .07047526 .11735026 .06567383 .13134766 .061279298 .14534505 .056884767 .16145833 .0546875 .1796875 .0546875 .19335938 .0546875 .20572917 .056152345 .21679688 .05908203 .22786458 .062021894 .23746746 .066345218 .24560547 .072052 .2537435 .07775879 .26000978 .085016887 .2644043 .093826297 .26879884 .102635707 .2709961 .113072719 .2709961 .12513733 .2709961 .13751729 .26782228 .14794414 .2614746 .15641785 .25512696 .16489156 .2467448 .17238362 .23632813 .17889405 .22591146 .18541463 .2141927 .19119771 .20117188 .19624329 .18815105 .20129903 .17472331 .20659383 .16088867 .21212769 .14705403 .2176717 .13354492 .22394817 .12036133 .23095703 .107177738 .2379659 .0953776 .246521 .08496094 .2566223 .07454427 .26672364 .06616211 .27877809 .059814454 .29278565 .053466798 .3067932 .05029297 .32357279 .05029297 .3431244 .05029297 .36039735 .05362956 .37693278 .060302736 .3927307 .066975917 .40853883 .07698568 .4223887 .09033203 .4342804 .10367838 .44618226 .12036133 .4557139 .14038086 .46287538 .16040039 .470047 .18375652 .4736328 .21044922 .4736328 .22216797 .4736328 .23388672 .472641 .24560547 .47065736 .25732423 .4686737 .26790367 .4661967 .27734376 .46322633 .28678385 .46025596 .29484049 .45703636 .30151368 .4535675 .30818687 .45009867 .31323243 .44704185 .3166504 .44439698 .32006837 .4417521 .32234703 .43945313 .32348634 .4375 .32462565 .43554688 .32543946 .4333496 .32592774 .4309082 .32641603 .4284668 .3269043 .42545573 .32739259 .421875 .32788087 .41829429 .328125 .41389976 .328125 .4086914 .328125 .40315757 .32788087 .3983561 .32739259 .3942871 .3269043 .3902181 .32609049 .3868815 .32495118 .38427735 .32381187 .3816732 .32242839 .37980143 .32080079 .3786621 .3191732 .3775228 .3173828 .37695313 .3154297 .37695313 .3125 .37695313 .30826823 .37876893 .30273438 .3824005 .29720054 .3860321 .29003907 .38991294 .28125 .39404298 .27246095 .398173 .26212565 .40205384 .25024415 .40568543 .23836263 .40931703 .22477214 .4111328 .20947266 .4111328 .19580078 .4111328 .18375652 .4095815 .17333985 .40647889 .16292317 .40338645 .15437825 .39898683 .14770508 .39328004 .1410319 .38757325 .13598633 .38080345 .13256836 .37297059 .12915039 .36514793 .1274414 .3566691 .1274414 .34753419 .1274414 .3348287 .13069661 .3241577 .13720703 .31552125 .14371746 .30688478 .15218099 .29930625 .16259766 .29278565 .17301433 .28627525 .18489583 .28041078 .19824219 .27519227 .21158855 .26998393 .22517903 .26460777 .23901367 .25906373 .2528483 .25352989 .26652018 .24733989 .2800293 .24049378 .29353843 .23364766 .3055013 .22533672 .31591798 .21556092 .32633464 .20578511 .3347168 .1940511 .34106446 .18035889 .3474121 .16667684 .35058595 .15038555 .35058595 .13148499Z"/>
<path id="p4-font_2_258" d="M.40576173 .01171875C.40576173 .0078125 .40445964 .0048828127 .40185548 .0029296876 .3992513 .0009765625 .39567057-.00048828127 .39111329-.0014648438 .386556-.0024414063 .3798828-.0029296876 .37109376-.0029296876 .36263023-.0029296876 .35587565-.0024414063 .35083009-.0014648438 .34578453-.00048828127 .3421224 .0009765625 .33984376 .0029296876 .3375651 .0048828127 .33642579 .0078125 .33642579 .01171875V.055664064C.31722007 .03515625 .29581706 .01912435 .2722168 .0075683596 .24861653-.0039876305 .22363281-.009765625 .19726563-.009765625 .17415364-.009765625 .15323894-.0067443849 .13452149-.0007019043 .11580404 .005340576 .099853519 .014078776 .08666992 .025512696 .07348633 .036946615 .06323242 .050989789 .055908204 .06764221 .048583986 .08430481 .044921876 .103256229 .044921876 .12449646 .044921876 .14931743 .04996745 .170873 .060058595 .18916321 .07014974 .20746358 .084635417 .22265625 .103515628 .23474121 .122395839 .24682617 .14550781 .2558899 .17285156 .26193238 .20019531 .26797486 .23095703 .2709961 .26513673 .2709961H.3256836V.3050537C.3256836 .32191978 .32389323 .33683778 .3203125 .34980775 .31673179 .36278788 .31095378 .37357585 .30297853 .38217164 .29500328 .39076744 .28466798 .3972524 .27197267 .4016266 .25927735 .40601097 .24365235 .40820313 .22509766 .40820313 .20524089 .40820313 .18741863 .40586854 .17163086 .40119935 .1558431 .39653016 .14200847 .39137779 .13012696 .3857422 .118245448 .3801066 .108317058 .37495423 .1003418 .37028504 .09236654 .36561585 .08642578 .36328126 .08251953 .36328126 .07991537 .36328126 .07763672 .36393229 .075683597 .36523438 .07373047 .36653648 .072021488 .3684896 .07055664 .37109376 .0690918 .3736979 .06803385 .37703453 .06738281 .38110353 .06673177 .38517253 .06640625 .38964845 .06640625 .39453126 .06640625 .40266929 .066975917 .4090983 .068115238 .41381837 .069254558 .41853843 .072021488 .4230143 .076416019 .4272461 .08081055 .43147788 .088378909 .43640647 .099121097 .44203187 .10986328 .44766746 .12223307 .45281474 .13623047 .45747376 .15022786 .46213279 .16552735 .46598817 .1821289 .46903993 .19873047 .47210185 .2154948 .4736328 .23242188 .4736328 .2639974 .4736328 .29085288 .4700521 .31298829 .46289063 .3351237 .45572917 .35302735 .4452311 .36669923 .43139649 .3803711 .41756187 .39029948 .40039063 .39648438 .3798828 .40266929 .359375 .40576173 .33544923 .40576173 .30810548V.01171875M.3256836 .21289063H.25683595C.23470052 .21289063 .2154948 .21100362 .19921875 .20722962 .1829427 .20346578 .1694336 .19790142 .1586914 .1905365 .14794922 .18317159 .14005535 .17432659 .13500977 .16400147 .12996419 .15368653 .1274414 .14181519 .1274414 .12838745 .1274414 .10545858 .13468425 .08719889 .14916992 .0736084 .1636556 .060017904 .18391927 .053222658 .20996094 .053222658 .2311198 .053222658 .25073243 .058624269 .26879884 .06942749 .28686524 .08024088 .3058268 .09678141 .3256836 .11904907V.21289063Z"/>
<path id="p4-font_2_336" d="M.44189454 .4321289C.44189454 .4207357 .4403483 .41251628 .43725587 .4074707 .43416343 .40242515 .43017579 .39990235 .42529298 .39990235H.3623047C.3736979 .38815309 .3816732 .37517295 .38623048 .3609619 .39078776 .34676109 .3930664 .33199058 .3930664 .3166504 .3930664 .29130046 .3889974 .26887513 .38085938 .24937439 .37272135 .22987366 .36108399 .2133789 .34594728 .19989014 .33081056 .18640137 .31282554 .17608135 .2919922 .16893006 .27115885 .16177877 .24804688 .15820313 .22265625 .15820313 .20475261 .15820313 .18774414 .16055806 .17163086 .16526795 .15551758 .16997783 .1430664 .1759084 .13427735 .18305969 .12841797 .17720032 .12361654 .17052715 .11987305 .16304016 .116129558 .15556336 .11425781 .14694722 .11425781 .13719177 .11425781 .12579854 .11954752 .11635844 .13012696 .10887146 .14070638 .10139465 .15478516 .09733073 .17236328 .09667969L.28710938 .091781619C.30891929 .09113058 .3289388 .08810934 .34716798 .082717899 .36539714 .077326457 .3811849 .0696462 .39453126 .059677125 .4078776 .04971822 .41829429 .0374705 .42578126 .02293396 .43326823 .00839742 .43701173-.008509318 .43701173-.027786255 .43701173-.048039754 .43277995-.06731161 .4243164-.08560181 .41585288-.10390218 .40291343-.11999003 .38549806-.13386536 .36808268-.14775086 .34586589-.15869649 .31884767-.16670227 .29182945-.17470806 .25992839-.17871094 .22314453-.17871094 .18766277-.17871094 .1574707-.17569478 .13256836-.16966248 .107666019-.16364034 .087239589-.15541585 .07128906-.14498902 .055338544-.13457234 .04378255-.12211609 .036621095-.10762024 .029459635-.09312439 .025878907-.07740275 .025878907-.060455324 .025878907-.049713136 .02718099-.03929138 .029785157-.029190064 .032389326-.019088746 .036376954-.009475708 .041748048-.00035095216 .04711914 .008763631 .053792318 .017471314 .061767579 .025772095 .069742839 .03408305 .078938808 .042312623 .08935547 .050460817 .073404949 .058629354 .061604818 .06892395 .053955079 .081344608 .04630534 .09377543 .04248047 .10718282 .04248047 .12156677 .04248047 .14150493 .04654948 .1593221 .0546875 .17501831 .06282552 .19071453 .072916667 .20477295 .08496094 .2171936 .07486979 .22921753 .06689453 .24278768 .061035158 .25790406 .05517578 .27302043 .052246095 .29130046 .052246095 .31274415 .052246095 .33776856 .056477865 .36019389 .064941409 .38002015 .073404949 .3998464 .085123699 .4165853 .100097659 .43023683 .11507162 .44388835 .13305664 .45437113 .15405274 .46168519 .17504883 .46899925 .19791667 .47265626 .22265625 .47265626 .23600261 .47265626 .24845378 .4719645 .26000978 .47058106 .27156578 .46920777 .2823893 .46729533 .29248048 .46484376H.42529298C.4308268 .46484376 .4349772 .4621582 .43774415 .4567871 .44051109 .45141603 .44189454 .44319663 .44189454 .4321289M.31591798 .3161621C.31591798 .34602867 .30769859 .36932374 .29125978 .38604737 .27482096 .402771 .25146485 .4111328 .2211914 .4111328 .2055664 .4111328 .1919759 .40853373 .18041992 .40333558 .16886394 .39814759 .15926107 .39100648 .15161133 .38191224 .1439616 .372818 .13826497 .36234538 .13452149 .35049439 .130778 .3386434 .12890625 .32622276 .12890625 .31323243 .12890625 .28434245 .13712566 .26161704 .15356446 .24505615 .17000325 .22849529 .19303386 .22021485 .22265625 .22021485 .23860677 .22021485 .2524414 .22272747 .26416017 .22775269 .2758789 .23278809 .28556315 .23977153 .2932129 .248703 .30086265 .2576345 .30655924 .26794435 .31030274 .27963258 .31404624 .2913208 .31591798 .3034973 .31591798 .3161621M.3564453-.032165529C.3564453-.013153076 .3487142 .0015106201 .33325196 .0118255619 .3177897 .022150675 .296875 .027638754 .2705078 .028289795L.15673828 .032226564C.14632161 .02403768 .13777669 .016255698 .13110352 .008880615 .124430339 .0015055338 .119140628-.0055389406 .115234378-.012252808 .111328128-.018966675 .10864258-.025599162 .107177738-.03215027 .10571289-.038711549 .10498047-.0454305 .10498047-.05230713 .10498047-.0736084 .115722659-.08974711 .13720703-.10072327 .1586914-.111699428 .18863933-.1171875 .22705078-.1171875 .25146485-.1171875 .27189128-.11481222 .28833009-.110061649 .3047689-.10531107 .31803385-.09900411 .328125-.09114075 .33821617-.08327738 .34545899-.07426453 .34985353-.06410217 .35424806-.053949994 .3564453-.043304445 .3564453-.032165529Z"/>
<path id="p4-font_2_286" d="M.44970704 .25097657C.44970704 .23828125 .4465332 .22924805 .44018556 .22387696 .4338379 .21850586 .42659507 .21582031 .41845704 .21582031H.1303711C.1303711 .19133504 .1328125 .16929627 .13769531 .14970398 .14257813 .1301117 .15071614 .11329651 .16210938 .09925842 .17350261 .08522034 .1883138 .07444254 .20654297 .06692505 .22477214 .059417726 .24707031 .055664064 .2734375 .055664064 .29427085 .055664064 .31282554 .057373048 .32910157 .060791017 .3453776 .064208988 .3594564 .06803385 .3713379 .072265628 .3832194 .0764974 .39298503 .080322269 .40063478 .083740238 .40828453 .0871582 .4140625 .08886719 .41796876 .08886719 .4202474 .08886719 .4222819 .08829752 .42407228 .0871582 .42586265 .08601888 .4272461 .0843099 .42822267 .08203125 .42919923 .0797526 .42993165 .07657877 .43041993 .072509769 .4309082 .06844076 .43115235 .06347656 .43115235 .057617189 .43115235 .053385419 .4309896 .04972331 .43066407 .04663086 .43033854 .04353841 .42993165 .040771486 .42944337 .038330079 .42895509 .035888673 .42814128 .033691408 .42700196 .03173828 .42586265 .029785157 .4243978 .027913413 .42260743 .026123047 .42081706 .024332682 .41552735 .021402995 .40673829 .017333985 .39794923 .013264974 .386556 .009277344 .3725586 .0053710939 .3585612 .0014648438 .34236656-.0020345052 .3239746-.005126953 .30558268-.008219401 .28597007-.009765625 .26513673-.009765625 .2290039-.009765625 .197347-.004714966 .17016602 .0053863527 .14298503 .015487671 .12011719 .030476889 .1015625 .050354005 .08300781 .07023112 .069010417 .0951589 .059570314 .12513733 .050130208 .15511577 .045410158 .1899821 .045410158 .22973633 .045410158 .26753745 .05029297 .30150859 .060058595 .33164979 .06982422 .36179099 .08390299 .38736979 .10229492 .40838624 .12068685 .42940269 .14290364 .44553123 .16894531 .45677186 .19498699 .46801249 .2241211 .4736328 .25634767 .4736328 .29085288 .4736328 .3202311 .46809898 .34448243 .45703126 .36873374 .44596354 .38867188 .43107096 .40429688 .41235353 .41992188 .39363609 .43139649 .37166343 .4387207 .34643556 .44604493 .32120768 .44970704 .29427085 .44970704 .265625V.25097657M.36865235 .27490235C.3696289 .31722007 .36027018 .3504232 .34057618 .37451173 .32088218 .39860026 .29166667 .41064454 .2529297 .41064454 .23307292 .41064454 .21565755 .40690104 .2006836 .39941407 .18570964 .3919271 .17317708 .3819987 .16308594 .3696289 .1529948 .35725913 .1451823 .34285484 .13964844 .32641603 .13411458 .3099772 .13102214 .292806 .1303711 .27490235H.36865235Z"/>
<path id="p4-font_2_28" d="M.43554688 .03466797C.43554688 .028808594 .43522135 .02368164 .4345703 .01928711 .43391929 .014892578 .43277995 .011230469 .43115235 .008300781 .42952476 .0053710939 .42765299 .0032552083 .4255371 .001953125 .42342124 .0006510417 .4210612 0 .41845704 0H.115234378C.1077474 0 .10066732 .0025227864 .09399414 .0075683596 .08732096 .012613933 .083984378 .021484375 .083984378 .034179689V.59765627C.083984378 .61035159 .08732096 .619222 .09399414 .6242676 .10066732 .6293132 .1077474 .63183596 .115234378 .63183596H.41503907C.41764323 .63183596 .42000328 .6311849 .42211915 .6298828 .42423503 .62858077 .425944 .62646487 .4272461 .62353518 .4285482 .62060549 .4296061 .61694338 .43041993 .6125488 .43123374 .6081543 .43164063 .60270187 .43164063 .5961914 .43164063 .59033206 .43123374 .5852051 .43041993 .58081057 .4296061 .576416 .4285482 .57283529 .4272461 .57006838 .425944 .56730148 .42423503 .5652669 .42211915 .56396487 .42000328 .5626628 .41764323 .5620117 .41503907 .5620117H.16796875V.36376954H.3798828C.38248698 .36376954 .38484703 .3630371 .3869629 .36157228 .38907878 .36010743 .39086915 .3580729 .39233399 .35546876 .39379884 .3528646 .39485679 .34928385 .3955078 .34472657 .39615885 .34016929 .39648438 .3347982 .39648438 .32861329 .39648438 .3227539 .39615885 .31770835 .3955078 .31347657 .39485679 .30924479 .39379884 .3058268 .39233399 .30322267 .39086915 .3006185 .38907878 .29874674 .3869629 .29760743 .38484703 .2964681 .38248698 .29589845 .3798828 .29589845H.16796875V.06982422H.41845704C.4210612 .06982422 .42342124 .06917318 .4255371 .067871097 .42765299 .06656901 .42952476 .06453451 .43115235 .061767579 .43277995 .059000654 .43391929 .055419923 .4345703 .05102539 .43522135 .04663086 .43554688 .041178388 .43554688 .03466797Z"/>
<path id="p4-font_2_454" d="M.40771485 .021484375C.410319 .016927084 .4116211 .013102214 .4116211 .010009766 .4116211 .006917318 .41007487 .0043945314 .40698243 .0024414063 .40388999 .00048828127 .39916993-.0008951823 .39282228-.0017089844 .3864746-.0025227864 .37825523-.0029296876 .36816407-.0029296876 .35839845-.0029296876 .35066734-.0026855469 .3449707-.0021972657 .33927409-.0017089844 .3347168-.0008951823 .33129884 .00024414063 .32788087 .0013834635 .3252767 .0028483074 .32348634 .004638672 .32169596 .0064290368 .32014976 .008463542 .31884767 .0107421879L.2133789 .1850586 .10839844 .0107421879C.10709635 .008463542 .10555013 .0064290368 .103759769 .004638672 .1019694 .0028483074 .099365238 .0013834635 .095947269 .00024414063 .0925293-.0008951823 .08805338-.0017089844 .08251953-.0021972657 .07698568-.0026855469 .06966146-.0029296876 .060546876-.0029296876 .05110677-.0029296876 .043375654-.0025227864 .037353517-.0017089844 .03133138-.0008951823 .02693685 .00048828127 .024169922 .0024414063 .021402995 .0043945314 .020100913 .006917318 .020263672 .010009766 .020426432 .013102214 .021972657 .016927084 .024902344 .021484375L.1616211 .23583985 .032226564 .4423828C.029622397 .4469401 .028238932 .45076499 .028076172 .45385743 .027913413 .45694987 .029378256 .45955406 .032470704 .46166993 .035563154 .4637858 .040283204 .46516929 .04663086 .4658203 .052978517 .46647135 .061360677 .46679688 .071777347 .46679688 .081217449 .46679688 .088785808 .46655274 .09448242 .46606446 .10017904 .46557618 .104654949 .46484376 .107910159 .4638672 .11116537 .46289063 .11360677 .46158854 .115234378 .45996095 .11686198 .45833335 .11832682 .45638023 .119628909 .45410157L.21972656 .29052735 .32128907 .45410157C.32259117 .4560547 .324056 .45784507 .3256836 .45947267 .3273112 .46110026 .32950846 .46248374 .3322754 .46362306 .33504234 .46476237 .33894859 .46557618 .34399415 .46606446 .3490397 .46655274 .35595704 .46679688 .3647461 .46679688 .3741862 .46679688 .38191734 .46647135 .38793946 .4658203 .39396159 .46516929 .3984375 .46394859 .4013672 .4621582 .40429688 .46036784 .40559898 .45784507 .40527345 .45458985 .4049479 .45133464 .4033203 .44726563 .40039063 .4423828L.27197267 .23828125 .40771485 .021484375Z"/>
<path id="p4-font_2_373" d="M.7265625 .012207031C.7265625 .009602864 .72591146 .007405599 .7246094 .0056152346 .7233073 .0038248699 .7211914 .0022786458 .7182617 .0009765625 .71533206-.00032552085 .711263-.0013020834 .7060547-.001953125 .7008464-.0026041668 .69433596-.0029296876 .68652346-.0029296876 .67838546-.0029296876 .6717122-.0026041668 .6665039-.001953125 .6612956-.0013020834 .6571452-.00032552085 .65405276 .0009765625 .65096029 .0022786458 .648763 .0038248699 .64746096 .0056152346 .6461589 .007405599 .6455078 .009602864 .6455078 .012207031V.27929688C.6455078 .29785157 .6438802 .31477867 .640625 .33007813 .6373698 .3453776 .63216146 .3585612 .625 .3696289 .61783859 .38069663 .60872396 .38916017 .59765627 .39501954 .58658859 .4008789 .5735677 .4038086 .55859377 .4038086 .54003909 .4038086 .521403 .39664714 .50268557 .38232423 .4839681 .3680013 .4633789 .34700523 .44091798 .31933595V.012207031C.44091798 .009602864 .44026695 .007405599 .43896485 .0056152346 .43766276 .0038248699 .43546549 .0022786458 .43237306 .0009765625 .4292806-.00032552085 .42513023-.0013020834 .41992188-.001953125 .41471354-.0026041668 .40820313-.0029296876 .40039063-.0029296876 .39290367-.0029296876 .3864746-.0026041668 .38110353-.001953125 .37573243-.0013020834 .37150065-.00032552085 .3684082 .0009765625 .36531578 .0022786458 .36319987 .0038248699 .36206056 .0056152346 .36092124 .007405599 .36035157 .009602864 .36035157 .012207031V.27929688C.36035157 .29785157 .3585612 .31477867 .35498048 .33007813 .35139976 .3453776 .34602867 .3585612 .3388672 .3696289 .33170573 .38069663 .32267253 .38916017 .31176759 .39501954 .30086265 .4008789 .2879232 .4038086 .27294923 .4038086 .25439454 .4038086 .23567708 .39664714 .21679688 .38232423 .19791667 .3680013 .17740886 .34700523 .15527344 .31933595V.012207031C.15527344 .009602864 .15462239 .007405599 .15332031 .0056152346 .15201824 .0038248699 .14990235 .0022786458 .14697266 .0009765625 .14404297-.00032552085 .13997396-.0013020834 .13476563-.001953125 .1295573-.0026041668 .12288412-.0029296876 .114746097-.0029296876 .106933597-.0029296876 .10042318-.0026041668 .095214847-.001953125 .09000651-.0013020834 .08585612-.00032552085 .08276367 .0009765625 .07967123 .0022786458 .077555339 .0038248699 .076416019 .0056152346 .075276698 .007405599 .07470703 .009602864 .07470703 .012207031V.45166017C.07470703 .4542643 .07519531 .45646159 .076171878 .45825196 .07714844 .46004234 .07910156 .46166993 .08203125 .46313478 .08496094 .4645996 .08870443 .46557618 .09326172 .46606446 .09781901 .46655274 .10384115 .46679688 .111328128 .46679688 .118489589 .46679688 .124430339 .46655274 .12915039 .46606446 .13387044 .46557618 .13753255 .4645996 .14013672 .46313478 .14274089 .46166993 .14461263 .46004234 .14575196 .45825196 .14689128 .45646159 .14746094 .4542643 .14746094 .45166017V.3935547C.17220052 .42122398 .19620769 .44148765 .21948242 .4543457 .24275716 .46720378 .26627604 .4736328 .29003907 .4736328 .30826823 .4736328 .32462565 .47151695 .33911134 .46728517 .35359703 .46305339 .3663737 .45711265 .3774414 .4494629 .38850913 .44181315 .39794923 .43269859 .40576173 .42211915 .41357423 .4115397 .42008464 .3997396 .42529298 .38671876 .4399414 .40266929 .45385743 .41617839 .46704103 .4272461 .4802246 .4383138 .49291993 .44726563 .50512698 .45410157 .517334 .4609375 .5292155 .4659017 .5407715 .46899415 .55232748 .47208659 .56396487 .4736328 .5756836 .4736328 .6040039 .4736328 .6277669 .4686686 .64697268 .45874024 .6661784 .44881187 .681722 .43554688 .6936035 .4189453 .70548507 .40234376 .71394857 .3828939 .71899417 .3605957 .72403976 .33829753 .7265625 .31477867 .7265625 .29003907V.012207031Z"/>
<path id="p4-font_2_393" d="M.4790039 .23852539C.4790039 .20008342 .47485353 .16554769 .46655274 .13491822 .45825196 .104288738 .44604493 .078297939 .42993165 .0569458 .41381837 .03560384 .39388023 .01914978 .3701172 .007583618 .34635417-.003982544 .3191732-.009765625 .28857423-.009765625 .27555339-.009765625 .26350913-.008463542 .2524414-.005859375 .2413737-.0032552083 .23055013 .00081380209 .2199707 .0063476564 .20939128 .011891683 .19889324 .018900553 .18847656 .027374268 .17805989 .03584798 .16699219 .04578654 .15527344 .05718994V-.1621399C.15527344-.16473389 .15462239-.16700745 .15332031-.16896057 .15201824-.1709137 .14990235-.17253621 .14697266-.17382813 .14404297-.1751302 .13997396-.17610677 .13476563-.17675781 .1295573-.17740886 .12288412-.17773438 .114746097-.17773438 .106933597-.17773438 .10042318-.17740886 .095214847-.17675781 .09000651-.17610677 .08585612-.1751302 .08276367-.17382813 .07967123-.17252605 .077555339-.17089844 .076416019-.16894531 .075276698-.16699219 .07470703-.16471355 .07470703-.16210938V.45166017C.07470703 .45458985 .07519531 .45694987 .076171878 .45874024 .07714844 .4605306 .07910156 .4620768 .08203125 .4633789 .08496094 .464681 .08870443 .46557618 .09326172 .46606446 .09781901 .46655274 .10335287 .46679688 .10986328 .46679688 .11669922 .46679688 .12231445 .46655274 .12670899 .46606446 .13110352 .46557618 .13476563 .464681 .13769531 .4633789 .140625 .4620768 .1426595 .4605255 .14379883 .45872499 .14493816 .4569346 .14550781 .45457459 .14550781 .4516449V.39250184C.15885417 .40618388 .17171224 .41807557 .18408203 .42817689 .19645183 .4382782 .208903 .44666545 .22143555 .45333863 .2339681 .46002198 .24682617 .46507264 .26000978 .4684906 .27319337 .47191874 .28710938 .4736328 .3017578 .4736328 .33365885 .4736328 .36083985 .46744285 .38330079 .45506288 .40576173 .4426829 .42407228 .42573548 .43823243 .40422059 .45239259 .38271586 .46272788 .3577067 .46923829 .32919313 .4757487 .3006897 .4790039 .27046714 .4790039 .23852539M.39404298 .22924805C.39404298 .2517395 .39233399 .27349855 .38891603 .29452516 .38549806 .31555177 .37963868 .33421327 .3713379 .35050965 .3630371 .36680604 .35188804 .37984214 .33789063 .38961793 .32389323 .3994039 .30647788 .40429688 .28564454 .40429688 .27522788 .40429688 .26497398 .40274558 .2548828 .39964295 .24479167 .3965505 .23453777 .3916626 .2241211 .38497926 .21370442 .3782959 .20279949 .36949159 .19140625 .35856629 .18001302 .347641 .16796875 .33418785 .15527344 .3182068V.143219C.17740886 .1161499 .19840496 .09543864 .21826172 .081085208 .23811849 .06674194 .2589518 .059570314 .28076173 .059570314 .300944 .059570314 .31827799 .064458217 .33276368 .07423401 .34724937 .08401998 .3589681 .09706116 .36791993 .113357547 .37687174 .12965393 .38346354 .14790853 .3876953 .16812134 .3919271 .18833415 .39404298 .20870972 .39404298 .22924805Z"/>
<path id="p4-font_2_367" d="M.15527344 .01222229C.15527344 .009618123 .15462239 .0074157717 .15332031 .0056152346 .15201824 .0038248699 .14990235 .0022786458 .14697266 .0009765625 .14404297-.00032552085 .13997396-.0013020834 .13476563-.001953125 .1295573-.0026041668 .12288412-.0029296876 .114746097-.0029296876 .106933597-.0029296876 .10042318-.0026041668 .095214847-.001953125 .09000651-.0013020834 .08585612-.00032552085 .08276367 .0009765625 .07967123 .0022786458 .077555339 .0038248699 .076416019 .0056152346 .075276698 .0074157717 .07470703 .009618123 .07470703 .01222229V.6650238C.07470703 .667628 .075276698 .6699066 .076416019 .67185977 .077555339 .67382308 .07967123 .67545577 .08276367 .6767578 .08585612 .6780599 .09000651 .67903646 .095214847 .6796875 .10042318 .68033859 .106933597 .68066409 .114746097 .68066409 .12288412 .68066409 .1295573 .68033859 .13476563 .6796875 .13997396 .67903646 .14404297 .6780599 .14697266 .6767578 .14990235 .67545577 .15201824 .67382308 .15332031 .67185977 .15462239 .6699066 .15527344 .667628 .15527344 .6650238V.01222229Z"/>
<clipPath id="p4-clip_3">
<path transform="matrix(1,0,0,-1,0,792)" d="M.00000912 0H612V792H.00000912Z" clip-rule="evenodd"/>
</clipPath>
<clipPath id="p4-clip_4">
<path transform="matrix(1,0,0,-1,0,792)" d="M.00000912 0H612V792H.00000912Z" clip-rule="evenodd"/>
</clipPath>
<clipPath id="p4-clip_5">
<path transform="matrix(1,0,0,-1,0,792)" d="M.00000912 0H612V792H.00000912Z" clip-rule="evenodd"/>
</clipPath>
<clipPath id="p4-clip_6">
<path transform="matrix(1,0,0,-1,0,792)" d="M.00000912 0H612V792H.00000912Z" clip-rule="evenodd"/>
</clipPath>
<clipPath id="p4-clip_7">
<path transform="matrix(1,0,0,-1,0,792)" d="M.00000912 0H612V792H.00000912Z" clip-rule="evenodd"/>
</clipPath>
<clipPath id="p4-clip_8">
<path transform="matrix(1,0,0,-1,0,792)" d="M.00000912 0H612V792H.00000912Z" clip-rule="evenodd"/>
</clipPath>
<clipPath id="p4-clip_9">
<path transform="matrix(1,0,0,-1,0,792)" d="M.00000912 0H612V792H.00000912Z" clip-rule="evenodd"/>
</clipPath>
<path id="p4-font_2_1007" d="M.44628907 .18017578C.44628907 .15120442 .4412435 .12508138 .43115235 .10180664 .4210612 .0785319 .40657554 .05859375 .3876953 .041992189 .3688151 .025390625 .34554038 .012613933 .3178711 .0036621094 .2902018-.0052897136 .2589518-.009765625 .2241211-.009765625 .20296224-.009765625 .18318685-.008046468 .16479492-.0046081545 .146403-.0011800131 .13004558 .002904256 .115722659 .0076446535 .10139974 .012385051 .08951823 .017288208 .080078128 .022354126 .07063802 .027420044 .064697269 .031097413 .06225586 .03338623 .059814454 .03567505 .057942708 .037958784 .056640626 .040237428 .055338544 .042526246 .05419922 .045303346 .053222658 .048568727 .052246095 .05184428 .051513673 .055852254 .05102539 .06059265 .05053711 .065333049 .05029297 .071136478 .05029297 .07800293 .05029297 .08976237 .051432294 .09793091 .053710939 .102508548 .055989583 .10708618 .059244794 .109375 .06347656 .109375 .06640625 .109375 .07218424 .1067454 .08081055 .101486209 .08943685 .09622701 .100504558 .090555828 .11401367 .084472659 .12752278 .07838949 .14331055 .0727183 .16137696 .06745911 .17944336 .06219991 .19954427 .059570314 .22167969 .059570314 .24316406 .059570314 .26204429 .06233724 .2783203 .067871097 .29459635 .073404949 .30826823 .081217449 .31933595 .091308597 .33040367 .10139974 .33870445 .11336263 .34423829 .12719727 .34977214 .1410319 .35253907 .15608724 .35253907 .17236328 .35253907 .19026692 .3490397 .2063802 .34204103 .22070313 .33504234 .23502605 .32478843 .24739583 .3112793 .2578125 .29777018 .26822917 .2811686 .27620445 .2614746 .28173829 .2417806 .28727214 .21940105 .29003907 .19433594 .29003907H.13427735C.13167317 .29003907 .12915039 .29060874 .12670899 .29174806 .12426758 .29288737 .122151698 .29475913 .12036133 .29736329 .11857096 .29996745 .11710612 .3033854 .1159668 .3076172 .11482748 .31184898 .11425781 .3173828 .11425781 .32421876 .11425781 .33040367 .114746097 .3355306 .115722659 .3395996 .11669922 .3436686 .11808268 .34692384 .11987305 .34936524 .121663417 .35180665 .123697917 .35359703 .12597656 .35473634 .1282552 .35587565 .13085938 .3564453 .13378906 .3564453H.18896485C.21044922 .3564453 .22973633 .3592224 .24682617 .3647766 .26391603 .37034098 .2784017 .37835185 .2902832 .3888092 .3021647 .39927674 .3112793 .41178385 .31762696 .42633058 .3239746 .44088746 .32714845 .45715843 .32714845 .47514344 .32714845 .4882253 .32503257 .5007324 .32080079 .5126648 .316569 .52460739 .31022135 .5349884 .3017578 .543808 .29329429 .55263778 .2824707 .5595856 .2692871 .5646515 .25610353 .5697276 .24088542 .5722656 .22363281 .5722656 .20475261 .5722656 .18741863 .5694173 .17163086 .5637207 .1558431 .5580241 .14176433 .5519206 .12939453 .54541018 .11702474 .5388997 .106770839 .5327962 .09863281 .5270996 .09049479 .521403 .08479818 .5185547 .08154297 .5185547 .07926432 .5185547 .07722982 .5189616 .07543945 .5197754 .073649089 .5205892 .07218424 .5222168 .07104492 .5246582 .0699056 .5270996 .0690918 .5305176 .068603519 .5349121 .068115238 .53930667 .067871097 .54508468 .067871097 .5522461 .067871097 .5571289 .06803385 .5614421 .068359378 .56518557 .0686849 .568929 .06933594 .57218429 .0703125 .5749512 .07128906 .5777181 .07242838 .5802409 .07373047 .58251956 .075032558 .58479818 .07722982 .5874837 .080322269 .5905762 .08341471 .59366866 .08968099 .59814456 .099121097 .6040039 .108561199 .6098633 .12019857 .6156413 .1340332 .6213379 .14786785 .6270345 .16381836 .63183596 .18188477 .6357422 .19995117 .63964846 .21940105 .64160159 .24023438 .64160159 .26953126 .64160159 .2952474 .63784286 .3173828 .6303253 .33951823 .622818 .35799156 .61220809 .37280274 .5984955 .38761393 .5847829 .39868165 .56837466 .40600587 .54927065 .41333009 .5301666 .4169922 .509023 .4169922 .48583985 .4169922 .46592204 .41438804 .4473877 .4091797 .43023683 .40397135 .4130961 .39632163 .3979136 .38623048 .38468934 .3761393 .37146507 .36376954 .36019898 .3491211 .3508911 .33447267 .34158326 .31754557 .33513389 .29833985 .33154298V.3305664C.32014976 .32828776 .3400879 .3228353 .3581543 .31420899 .3762207 .30558268 .3917643 .29475913 .40478517 .28173829 .417806 .26871745 .42797853 .25349937 .43530274 .23608399 .44262696 .21866863 .44628907 .20003255 .44628907 .18017578Z"/>
<path id="p4-font_2_1004" d="M.47216798 .3173828C.47216798 .268809 .4683431 .22447205 .46069337 .18437195 .4530436 .14427185 .4403483 .10979716 .42260743 .080947879 .40486656 .05209859 .3816732 .02976481 .35302735 .013946533 .3243815-.0018615723 .2890625-.009765625 .24707031-.009765625 .20735677-.009765625 .1739095-.0026753743 .14672852 .011505127 .11954752 .025685629 .09765625 .04654948 .08105469 .07409668 .064453128 .10164388 .052652997 .1355489 .045654298 .17581177 .038655599 .21607463 .03515625 .26228843 .03515625 .31445313 .03515625 .36270143 .0390625 .406957 .046875 .44721986 .0546875 .4874827 .06738281 .52203878 .08496094 .55088809 .10253906 .57973739 .12565105 .60206606 .15429688 .61787417 .1829427 .63369247 .21809896 .64160159 .25976563 .64160159 .2998047 .64160159 .3334147 .6345113 .3605957 .6203308 .3877767 .6061503 .40966798 .58528646 .42626954 .55773928 .4428711 .5301921 .45467124 .49628703 .46166993 .45602418 .4686686 .41576133 .47216798 .36954753 .47216798 .3173828M.38623048 .31150819C.38623048 .34314475 .38509117 .371521 .3828125 .39663697 .38053385 .42175294 .37719728 .44392906 .37280274 .46316529 .3684082 .4824117 .36271159 .4989624 .3557129 .5128174 .3487142 .52668258 .34033204 .53809615 .3305664 .5470581 .32080079 .5560303 .3096517 .56255599 .29711915 .56663516 .28458659 .5707143 .2705078 .5727539 .2548828 .5727539 .22721355 .5727539 .20475261 .5662282 .1875 .5531769 .17024739 .5401357 .1566569 .52220156 .14672852 .4993744 .13680013 .47654725 .13004558 .44980369 .12646485 .41914369 .12288412 .38848368 .12109375 .35554505 .12109375 .32032777 .12109375 .27303569 .123535159 .23283386 .12841797 .19972229 .13330078 .1666209 .1410319 .13963318 .15161133 .118759158 .16219075 .0978953 .17569988 .082733158 .19213867 .073272708 .20857747 .063812259 .22851563 .05908203 .25195313 .05908203 .27018229 .05908203 .2862142 .062016805 .30004884 .06788635 .31388346 .0737559 .32576499 .08215332 .33569337 .09307861 .34562174 .104003909 .35384117 .11713155 .36035157 .13246155 .36686198 .14779155 .3720703 .16474915 .37597657 .18333435 .3798828 .20192974 .38256837 .22207134 .3840332 .24375916 .38549806 .265447 .38623048 .28803 .38623048 .31150819Z"/>
<clipPath id="p4-clip_10">
<path transform="matrix(1,0,0,-1,0,792)" d="M.00000912 0H612V792H.00000912Z" clip-rule="evenodd"/>
</clipPath>
<clipPath id="p4-clip_11">
<path transform="matrix(1,0,0,-1,0,792)" d="M.00000912 0H612V792H.00000912Z" clip-rule="evenodd"/>
</clipPath>
<clipPath id="p4-clip_12">
<path transform="matrix(1,0,0,-1,0,792)" d="M.00000912 0H612V792H.00000912Z" clip-rule="evenodd"/>
</clipPath>
<path id="p4-font_2_1006" d="M.45117188 .036132814C.45117188 .030273438 .45076499 .025065104 .44995118 .020507813 .44913737 .015950522 .44799806 .012125651 .4465332 .009033203 .44506837 .0059407555 .44311524 .0036621094 .44067384 .0021972657 .43823243 .0007324219 .43554688 0 .4326172 0H.083496097C.078938808 0 .07495117 .00056966146 .0715332 .0017089844 .068115238 .0028483074 .06518555 .0047200524 .06274414 .0073242189 .060302736 .009928386 .05851237 .013671875 .057373048 .018554688 .056233724 .0234375 .055664064 .029459635 .055664064 .036621095 .055664064 .04313151 .055908204 .048828126 .056396486 .053710939 .056884767 .05859375 .057942708 .0629069 .059570314 .06665039 .061197919 .07039388 .06323242 .07413737 .06567383 .07788086 .068115238 .08162435 .07128906 .08561198 .07519531 .08984375L.1977539 .21989441C.22607422 .24986267 .2487793 .2767385 .26586915 .30052186 .28295899 .3243052 .29614259 .34596763 .30541993 .36550904 .31469728 .38506065 .32080079 .40281678 .32373048 .41877748 .32666017 .43473817 .328125 .4497223 .328125 .46372987 .328125 .4777476 .32584635 .49102784 .32128907 .50357058 .31673179 .5161235 .31013999 .52712509 .30151368 .5365753 .29288737 .54603579 .2820638 .5535329 .26904298 .5590668 .25602214 .5646108 .24104817 .5673828 .2241211 .5673828 .20426433 .5673828 .18644206 .5646159 .1706543 .55908206 .15486653 .55354818 .1410319 .54752609 .12915039 .5410156 .11726888 .5345052 .10734049 .5284831 .099365238 .5229492 .09138998 .51741537 .08544922 .51464846 .08154297 .51464846 .07926432 .51464846 .07722982 .5152995 .07543945 .51660159 .073649089 .5179036 .07218424 .52001956 .07104492 .5229492 .0699056 .5258789 .069010417 .52978518 .068359378 .53466799 .067708339 .5395508 .06738281 .54541018 .06738281 .5522461 .06738281 .5571289 .06754557 .56136068 .067871097 .5649414 .06819662 .56852218 .06876627 .57161459 .06958008 .57421877 .07039388 .57682296 .07145182 .57926437 .072753909 .58154299 .07405599 .5838216 .076660159 .5866699 .080566409 .5900879 .084472659 .59350588 .09122721 .59814456 .10083008 .6040039 .110432948 .6098633 .12247721 .6156413 .13696289 .6213379 .15144857 .6270345 .1673991 .63183596 .18481446 .6357422 .20222982 .63964846 .22054036 .64160159 .2397461 .64160159 .27034507 .64160159 .29711915 .6372833 .32006837 .62864688 .34301759 .62002059 .36206056 .60821536 .37719728 .5932312 .39233399 .5782471 .40364585 .56081649 .4111328 .54093936 .41861979 .5210724 .42236329 .49989829 .42236329 .477417 .42236329 .45721437 .4205729 .4370931 .4169922 .41705323 .41341148 .39702354 .4058431 .3753611 .3942871 .35206605 .3827311 .32877098 .3660482 .3028717 .34423829 .2743683 .32242839 .24586487 .29345704 .21304322 .25732423 .17590332L.15722656 .07128906H.4321289C.43473307 .07128906 .43725587 .07055664 .43969728 .0690918 .44213868 .06762695 .44425456 .06542969 .44604493 .0625 .4478353 .059570314 .44913737 .055908204 .44995118 .051513673 .45076499 .04711914 .45117188 .041992189 .45117188 .036132814Z"/>
<path id="p4-font_2_381" d="M.48339845 .23657227C.48339845 .20073445 .47867839 .16774495 .46923829 .13760376 .4597982 .10746256 .4457194 .08147176 .42700196 .059631349 .40828453 .037801107 .38484703 .020777384 .35668946 .008560181 .3285319-.0036570233 .29589845-.009765625 .25878907-.009765625 .22265625-.009765625 .19116211-.004389445 .16430664 .006362915 .13745117 .017115275 .11507162 .032755536 .09716797 .05328369 .07926432 .07381185 .06591797 .098739627 .057128908 .12806702 .048339845 .15739441 .043945314 .19063314 .043945314 .2277832 .043945314 .263621 .048583986 .2966105 .057861329 .3267517 .06713867 .3568929 .08113607 .38287864 .099853519 .40470887 .11857096 .4265493 .14192708 .4434967 .16992188 .45555116 .19791667 .4676056 .23063152 .4736328 .2680664 .4736328 .30419923 .4736328 .33569337 .46825663 .36254884 .45750428 .3894043 .44675193 .41178385 .43111167 .4296875 .4105835 .44759117 .39005534 .4610189 .36512757 .4699707 .33580018 .47892253 .30647279 .48339845 .27339683 .48339845 .23657227M.3984375 .23120117C.3984375 .25499473 .39624024 .27748619 .3918457 .29867555 .38745118 .3198649 .38020835 .33844505 .3701172 .3544159 .36002604 .37038676 .34635417 .38301597 .32910157 .39230348 .31184898 .40160118 .2903646 .40625 .26464845 .40625 .24088542 .40625 .22045899 .40201316 .20336914 .39353944 .1862793 .3850657 .17220052 .3730825 .16113281 .35758973 .15006511 .34210716 .1418457 .32377116 .13647461 .3025818 .13110352 .2814026 .12841797 .2582601 .12841797 .2331543 .12841797 .20903524 .13061524 .18638103 .13500977 .16519165 .1394043 .14400228 .14672852 .12550354 .15698242 .109695438 .16723633 .09388733 .18098958 .081334438 .19824219 .07203674 .2154948 .06274923 .23697917 .05810547 .2626953 .05810547 .2861328 .05810547 .30647788 .062342328 .32373048 .07081604 .34098307 .07928976 .35514323 .09118652 .36621095 .10650635 .37727867 .12183634 .38541667 .14009094 .390625 .16127014 .39583335 .18245952 .3984375 .20576985 .3984375 .23120117Z"/>
<path id="p4-font_2_374" d="M.453125 .012207031C.453125 .009602864 .45247398 .007405599 .45117188 .0056152346 .44986979 .0038248699 .4477539 .0022786458 .44482423 .0009765625 .44189454-.00032552085 .43782554-.0013020834 .4326172-.001953125 .42740885-.0026041668 .42089845-.0029296876 .41308595-.0029296876 .4049479-.0029296876 .39827476-.0026041668 .3930664-.001953125 .38785807-.0013020834 .38378907-.00032552085 .38085938 .0009765625 .3779297 .0022786458 .3758138 .0038248699 .37451173 .0056152346 .37320964 .007405599 .3725586 .009602864 .3725586 .012207031V.26953126C.3725586 .29459635 .37060548 .31477867 .36669923 .33007813 .36279298 .3453776 .35709635 .3585612 .34960938 .3696289 .3421224 .38069663 .33243815 .38916017 .32055665 .39501954 .30867515 .4008789 .29492188 .4038086 .27929688 .4038086 .2591146 .4038086 .2389323 .39664714 .21875 .38232423 .1985677 .3680013 .17740886 .34700523 .15527344 .31933595V.012207031C.15527344 .009602864 .15462239 .007405599 .15332031 .0056152346 .15201824 .0038248699 .14990235 .0022786458 .14697266 .0009765625 .14404297-.00032552085 .13997396-.0013020834 .13476563-.001953125 .1295573-.0026041668 .12288412-.0029296876 .114746097-.0029296876 .106933597-.0029296876 .10042318-.0026041668 .095214847-.001953125 .09000651-.0013020834 .08585612-.00032552085 .08276367 .0009765625 .07967123 .0022786458 .077555339 .0038248699 .076416019 .0056152346 .075276698 .007405599 .07470703 .009602864 .07470703 .012207031V.45166017C.07470703 .4542643 .07519531 .45646159 .076171878 .45825196 .07714844 .46004234 .07910156 .46166993 .08203125 .46313478 .08496094 .4645996 .08870443 .46557618 .09326172 .46606446 .09781901 .46655274 .10384115 .46679688 .111328128 .46679688 .118489589 .46679688 .124430339 .46655274 .12915039 .46606446 .13387044 .46557618 .13753255 .4645996 .14013672 .46313478 .14274089 .46166993 .14461263 .46004234 .14575196 .45825196 .14689128 .45646159 .14746094 .4542643 .14746094 .45166017V.3935547C.17220052 .42122398 .19685872 .44148765 .22143555 .4543457 .24601238 .46720378 .27083335 .4736328 .29589845 .4736328 .3251953 .4736328 .34985353 .4686686 .36987306 .45874024 .38989259 .44881187 .40608726 .43554688 .41845704 .4189453 .4308268 .40234376 .43969728 .3828939 .44506837 .3605957 .45043946 .33829753 .453125 .31152345 .453125 .28027345V.012207031Z"/>
<path id="p4-font_2_296" d="M.3154297 .6323242C.3154297 .62613937 .31510417 .6211751 .31445313 .61743167 .3138021 .6136882 .31306968 .61067709 .31225587 .60839846 .31144206 .6061198 .31038413 .60457357 .30908204 .60375979 .30777995 .602946 .30615235 .60253909 .30419923 .60253909 .30192057 .60253909 .29907228 .6032715 .2956543 .6047363 .29223634 .6062012 .28808595 .6078288 .28320313 .60961917 .2783203 .6114095 .27254234 .6130371 .26586915 .61450198 .25919596 .6159668 .25146485 .6166992 .24267578 .6166992 .23063152 .6166992 .22037761 .61475118 .21191406 .6108551 .20345052 .60695907 .19661458 .60087588 .19140625 .5926056 .18619792 .5843353 .18245442 .5736287 .18017578 .56048586 .17789714 .54734298 .17675781 .5313619 .17675781 .5125427V.46484376H.27490235C.2775065 .46484376 .27970378 .46427409 .28149415 .46313478 .28328453 .46199546 .2849121 .46004234 .28637696 .4572754 .2878418 .45450846 .2889811 .45100913 .28979493 .44677735 .29060874 .44254557 .29101563 .43733726 .29101563 .43115235 .29101563 .4194336 .28955079 .41097007 .2866211 .40576173 .2836914 .40055339 .27978517 .39794923 .27490235 .39794923H.17675781V.01222229C.17675781 .009618123 .17610677 .0074157717 .17480469 .0056152346 .17350261 .0038248699 .17130535 .0022786458 .16821289 .0009765625 .16512044-.00032552085 .16097005-.0013020834 .15576172-.001953125 .15055339-.0026041668 .14404297-.0029296876 .13623047-.0029296876 .12841797-.0029296876 .121907558-.0026041668 .11669922-.001953125 .11149088-.0013020834 .10734049-.00032552085 .10424805 .0009765625 .1011556 .0022786458 .098958339 .0038248699 .09765625 .0056152346 .096354167 .0074157717 .095703128 .009618123 .095703128 .01222229V.39794923H.033691408C.028483073 .39794923 .024576823 .40055339 .021972657 .40576173 .01936849 .41097007 .018066407 .4194336 .018066407 .43115235 .018066407 .43733726 .018391928 .44254557 .019042969 .44677735 .01969401 .45100913 .020670573 .45450846 .021972657 .4572754 .02327474 .46004234 .024902344 .46199546 .026855469 .46313478 .028808594 .46427409 .03108724 .46484376 .033691408 .46484376H.095703128V.5101471C.095703128 .540685 .09855143 .56691488 .10424805 .58883669 .109944667 .6107585 .118652347 .6287028 .1303711 .6426697 .14208985 .65663656 .15681966 .6669464 .17456055 .67359927 .19230144 .68026229 .21321614 .68359377 .23730469 .68359377 .24869792 .68359377 .25976563 .6825358 .2705078 .6804199 .28125 .678304 .28955079 .6760254 .29541017 .673584 .30126954 .6711426 .30517579 .6689453 .3071289 .6669922 .30908204 .66503909 .31070964 .6625163 .31201173 .6594238 .3133138 .65633139 .31420899 .6525879 .31469728 .64819338 .31518556 .6437988 .3154297 .6385091 .3154297 .6323242Z"/>
<path id="p4-font_2_349" d="M.15527344 .012207031C.15527344 .009602864 .15462239 .007405599 .15332031 .0056152346 .15201824 .0038248699 .14990235 .0022786458 .14697266 .0009765625 .14404297-.00032552085 .13997396-.0013020834 .13476563-.001953125 .1295573-.0026041668 .12288412-.0029296876 .114746097-.0029296876 .106933597-.0029296876 .10042318-.0026041668 .095214847-.001953125 .09000651-.0013020834 .08585612-.00032552085 .08276367 .0009765625 .07967123 .0022786458 .077555339 .0038248699 .076416019 .0056152346 .075276698 .007405599 .07470703 .009602864 .07470703 .012207031V.45166017C.07470703 .4539388 .075276698 .4560547 .076416019 .4580078 .077555339 .45996095 .07967123 .46158854 .08276367 .46289063 .08585612 .46419273 .09000651 .46516929 .095214847 .4658203 .10042318 .46647135 .106933597 .46679688 .114746097 .46679688 .12288412 .46679688 .1295573 .46647135 .13476563 .4658203 .13997396 .46516929 .14404297 .46419273 .14697266 .46289063 .14990235 .46158854 .15201824 .45996095 .15332031 .4580078 .15462239 .4560547 .15527344 .4539388 .15527344 .45166017V.012207031M.16455078 .60058596C.16455078 .58170577 .16097005 .56884768 .1538086 .5620117 .14664714 .5551758 .13346355 .5517578 .11425781 .5517578 .0953776 .5517578 .08243815 .5550944 .07543945 .5617676 .06844076 .56844076 .064941409 .5810547 .064941409 .5996094 .064941409 .61848959 .06852213 .63134768 .075683597 .6381836 .082845058 .64501956 .09602865 .6484375 .115234378 .6484375 .13411458 .6484375 .14705403 .6451009 .15405274 .63842776 .16105144 .6317546 .16455078 .6191406 .16455078 .60058596Z"/>
<path id="p4-font_2_437" d="M.45117188 .012207031C.45117188 .009602864 .4506022 .007405599 .4494629 .0056152346 .44832359 .0038248699 .44628907 .0022786458 .44335938 .0009765625 .4404297-.00032552085 .43660484-.0013020834 .43188478-.001953125 .4271647-.0026041668 .42138673-.0029296876 .41455079-.0029296876 .4070638-.0029296876 .4009603-.0026041668 .39624024-.001953125 .39152018-.0013020834 .3877767-.00032552085 .38500978 .0009765625 .38224284 .0022786458 .3803711 .0038248699 .37939454 .0056152346 .37841798 .007405599 .3779297 .009602864 .3779297 .012207031V.0703125C.3528646 .042470296 .328125 .022160849 .30371095 .009384155 .27929688-.003382365 .25455729-.009765625 .22949219-.009765625 .20019531-.009765625 .17553711-.004877726 .15551758 .0048980715 .13549805 .014673869 .11930338 .027949015 .106933597 .04472351 .094563808 .06150818 .08569336 .081059779 .080322269 .103378299 .07495117 .12570699 .072265628 .15283711 .072265628 .18476868V.4516449C.072265628 .45424906 .07283529 .45644633 .07397461 .4582367 .07511393 .46003724 .077311199 .46166993 .080566409 .46313478 .08382162 .4645996 .08805338 .46557618 .09326172 .46606446 .098470058 .46655274 .10498047 .46679688 .11279297 .46679688 .12060547 .46679688 .12711589 .46655274 .13232422 .46606446 .13753255 .46557618 .14168294 .4645996 .14477539 .46313478 .14786785 .46166993 .15006511 .46003724 .15136719 .4582367 .15266927 .45644633 .15332031 .45424906 .15332031 .4516449V.19548035C.15332031 .16973369 .15519206 .14911907 .15893555 .13363648 .16267903 .11815389 .16837566 .10494995 .17602539 .09402466 .18367513 .083109539 .19335938 .074635829 .20507813 .068603519 .21679688 .06258138 .23046875 .059570314 .24609375 .059570314 .26627604 .059570314 .28637696 .06677246 .30639649 .08117676 .32641603 .095581058 .34765626 .11669922 .3701172 .14453125V.45166017C.3701172 .4542643 .37068687 .45646159 .37182618 .45825196 .37296549 .46004234 .37516276 .46166993 .37841798 .46313478 .3816732 .4645996 .38582359 .46557618 .39086915 .46606446 .3959147 .46655274 .4025065 .46679688 .41064454 .46679688 .41845704 .46679688 .42496745 .46655274 .43017579 .46606446 .43538413 .46557618 .43945313 .4645996 .4423828 .46313478 .4453125 .46166993 .44750978 .46004234 .4489746 .45825196 .45043946 .45646159 .45117188 .4542643 .45117188 .45166017V.012207031Z"/>
<path id="p4-font_2_396" d="M.33154298 .42285157C.33154298 .4156901 .33138023 .40966798 .3310547 .40478517 .33072917 .39990235 .33007813 .39607749 .32910157 .39331056 .328125 .3905436 .3269043 .38842774 .32543946 .3869629 .3239746 .38549806 .3219401 .38476563 .31933595 .38476563 .31673179 .38476563 .31355796 .38549806 .30981446 .3869629 .30607096 .38842774 .3018392 .38989259 .29711915 .39135743 .29239909 .39282228 .28710938 .39420573 .28125 .3955078 .27539063 .3968099 .26904298 .39746095 .26220704 .39746095 .254069 .39746095 .24609375 .39583335 .23828125 .39257813 .23046875 .3893229 .22224935 .3839518 .21362305 .37646485 .20499675 .36897788 .19596355 .35904948 .18652344 .3466797 .17708333 .3343099 .16666667 .3191732 .15527344 .30126954V.012207031C.15527344 .009602864 .15462239 .007405599 .15332031 .0056152346 .15201824 .0038248699 .14990235 .0022786458 .14697266 .0009765625 .14404297-.00032552085 .13997396-.0013020834 .13476563-.001953125 .1295573-.0026041668 .12288412-.0029296876 .114746097-.0029296876 .106933597-.0029296876 .10042318-.0026041668 .095214847-.001953125 .09000651-.0013020834 .08585612-.00032552085 .08276367 .0009765625 .07967123 .0022786458 .077555339 .0038248699 .076416019 .0056152346 .075276698 .007405599 .07470703 .009602864 .07470703 .012207031V.45166017C.07470703 .4542643 .07519531 .45646159 .076171878 .45825196 .07714844 .46004234 .07910156 .46166993 .08203125 .46313478 .08496094 .4645996 .08870443 .46557618 .09326172 .46606446 .09781901 .46655274 .10384115 .46679688 .111328128 .46679688 .118489589 .46679688 .124430339 .46655274 .12915039 .46606446 .13387044 .46557618 .13753255 .4645996 .14013672 .46313478 .14274089 .46166993 .14461263 .46004234 .14575196 .45825196 .14689128 .45646159 .14746094 .4542643 .14746094 .45166017V.3876953C.1595052 .40527345 .17081706 .41959635 .18139649 .43066407 .1919759 .44173179 .20198567 .45043946 .21142578 .4567871 .22086589 .46313478 .23022461 .4675293 .23950196 .4699707 .2487793 .4724121 .25813804 .4736328 .26757813 .4736328 .2718099 .4736328 .27661134 .47338868 .28198243 .4729004 .28735353 .4724121 .29296876 .47151695 .29882813 .47021485 .3046875 .46891276 .3099772 .4674479 .31469728 .4658203 .31941734 .46419273 .3227539 .4625651 .32470704 .4609375 .32666017 .4593099 .32796226 .45776368 .32861329 .45629884 .3292643 .45483399 .32983399 .45296226 .33032228 .4506836 .33081056 .44840495 .33113609 .44506837 .33129884 .44067384 .33146159 .4362793 .33154298 .43033854 .33154298 .42285157Z"/>
<path id="p4-font_2_410" d="M.30322267 .043945314C.30322267 .034505208 .30257163 .027018229 .30126954 .021484375 .29996745 .015950522 .2980143 .011881511 .29541017 .009277344 .292806 .0066731774 .28889976 .004231771 .2836914 .001953125 .27848307-.00032552085 .27254234-.0021972657 .26586915-.0036621094 .25919596-.005126953 .25211589-.0063476564 .2446289-.0073242189 .23714192-.008300781 .22965496-.0087890629 .22216797-.0087890629 .19938152-.0087890629 .17985027-.0057729089 .16357422 .0002593994 .14729817 .00630188 .13395183 .0154418949 .123535159 .027679444 .11311849 .039916994 .10555013 .055414838 .10083008 .07417297 .09611002 .092931117 .09375 .11503601 .09375 .14048767V.39794923H.032226564C.02734375 .39794923 .0234375 .40055339 .020507813 .40576173 .017578125 .41097007 .016113282 .4194336 .016113282 .43115235 .016113282 .43733726 .016520182 .44254557 .017333985 .44677735 .018147788 .45100913 .019205729 .45450846 .020507813 .4572754 .021809897 .46004234 .02351888 .46199546 .025634766 .46313478 .02775065 .46427409 .030110678 .46484376 .032714845 .46484376H.09375V.56933596C.09375 .57161459 .094319667 .57373049 .095458988 .5756836 .096598308 .5776367 .098714198 .5793457 .10180664 .58081057 .104899089 .5822754 .10904948 .5833333 .11425781 .5839844 .11946615 .58463546 .12597656 .58496096 .13378906 .58496096 .14192708 .58496096 .14860027 .58463546 .1538086 .5839844 .15901692 .5833333 .16308594 .5822754 .16601563 .58081057 .16894531 .5793457 .1710612 .5776367 .17236328 .5756836 .17366536 .57373049 .1743164 .57161459 .1743164 .56933596V.46484376H.28710938C.28971354 .46484376 .2919922 .46427409 .2939453 .46313478 .29589845 .46199546 .29760743 .46004234 .29907228 .4572754 .3005371 .45450846 .30159507 .45100913 .3022461 .44677735 .30289714 .44254557 .30322267 .43733726 .30322267 .43115235 .30322267 .4194336 .3017578 .41097007 .29882813 .40576173 .29589845 .40055339 .2919922 .39794923 .28710938 .39794923H.1743164V.15211487C.1743164 .12176005 .17879232 .09882609 .18774414 .08331299 .19669597 .06781006 .21272786 .060058595 .23583985 .060058595 .24332683 .060058595 .25 .060791017 .25585938 .06225586 .26171876 .0637207 .2669271 .06526693 .27148438 .06689453 .27604167 .06852213 .2799479 .07006836 .28320313 .0715332 .28645835 .07299805 .28938804 .07373047 .2919922 .07373047 .29361979 .07373047 .29516603 .07332357 .29663087 .072509769 .2980957 .07169596 .29923503 .07014974 .30004884 .067871097 .30086265 .065592449 .30159507 .0625 .3022461 .05859375 .30289714 .0546875 .30322267 .049804689 .30322267 .043945314Z"/>
<path id="p4-font_2_24" d="M.5698242 .3251953C.5698242 .2705078 .5628255 .22273763 .5488281 .18188477 .53483077 .1410319 .5144043 .107177738 .48754884 .080322269 .46069337 .053466798 .42773438 .033365888 .38867188 .020019532 .34960938 .0066731774 .3030599 0 .24902344 0H.115234378C.1077474 0 .10066732 .0025227864 .09399414 .0075683596 .08732096 .012613933 .083984378 .021484375 .083984378 .034179689V.59765627C.083984378 .61035159 .08732096 .619222 .09399414 .6242676 .10066732 .6293132 .1077474 .63183596 .115234378 .63183596H.25830079C.31298829 .63183596 .35921226 .62475588 .39697267 .6105957 .43473307 .59643557 .46638999 .5760905 .49194337 .54956057 .51749679 .5230306 .53686526 .4908854 .5500488 .453125 .5632324 .4153646 .5698242 .37272135 .5698242 .3251953M.4814453 .32177735C.4814453 .35595704 .47721354 .3877767 .46875 .41723634 .46028648 .44669596 .44702149 .47216798 .42895509 .49365235 .41088868 .5151367 .38802085 .53190109 .36035157 .5439453 .33268229 .55598959 .29703776 .5620117 .25341798 .5620117H.16796875V.0703125H.25439454C.29475913 .0703125 .32877604 .07535807 .3564453 .08544922 .3841146 .09554037 .40722657 .1110026 .42578126 .13183594 .44433595 .15266927 .45825196 .17879232 .4675293 .21020508 .47680665 .24161785 .4814453 .2788086 .4814453 .32177735Z"/>
<clipPath id="p4-clip_13">
<path transform="matrix(1,0,0,-1,0,792)" d="M.00000912 0H612V792H.00000912Z" clip-rule="evenodd"/>
</clipPath>
<clipPath id="p4-clip_14">
<path transform="matrix(1,0,0,-1,0,792)" d="M.00000912 0H612V792H.00000912Z" clip-rule="evenodd"/>
</clipPath>
<clipPath id="p4-clip_15">
<path transform="matrix(1,0,0,-1,0,792)" d="M.00000912 0H612V792H.00000912Z" clip-rule="evenodd"/>
</clipPath>
<clipPath id="p4-clip_16">
<path transform="matrix(1,0,0,-1,0,792)" d="M.00000912 0H612V792H.00000912Z" clip-rule="evenodd"/>
</clipPath>
<clipPath id="p4-clip_17">
<path transform="matrix(1,0,0,-1,0,792)" d="M.00000912 0H612V792H.00000912Z" clip-rule="evenodd"/>
</clipPath>
<clipPath id="p4-clip_18">
<path transform="matrix(1,0,0,-1,0,792)" d="M.00000912 0H612V792H.00000912Z" clip-rule="evenodd"/>
</clipPath>
<clipPath id="p4-clip_19">
<path transform="matrix(1,0,0,-1,0,792)" d="M.00000912 0H612V792H.00000912Z" clip-rule="evenodd"/>
</clipPath>
<clipPath id="p4-clip_20">
<path transform="matrix(1,0,0,-1,0,792)" d="M.00000912 0H612V792H.00000912Z" clip-rule="evenodd"/>
</clipPath>
<clipPath id="p4-clip_21">
<path transform="matrix(1,0,0,-1,0,792)" d="M.00000912 0H612V792H.00000912Z" clip-rule="evenodd"/>
</clipPath>
<clipPath id="p4-clip_22">
<path transform="matrix(1,0,0,-1,0,792)" d="M.00000912 0H612V792H.00000912Z" clip-rule="evenodd"/>
</clipPath>
</defs>
<g>
<g clip-path="url(#p4-clip_1)">
<use data-text="C" xlink:href="#p4-font_2_18" transform="matrix(11.04,0,0,-11.04,93.984,82.46002)"/>
<use data-text="." xlink:href="#p4-font_2_856" transform="matrix(11.04,0,0,-11.04,99.868328,82.46002)"/>
<use data-text="1" xlink:href="#p4-font_2_1005" transform="matrix(11.04,0,0,-11.04,102.650409,82.46002)"/>
<use data-text=" " xlink:href="#p4-font_2_3" transform="matrix(11.04,0,0,-11.04,108.24769,82.46002)"/>
<use data-text="U" xlink:href="#p4-font_2_104" transform="matrix(11.04,0,0,-11.04,110.77585,82.46002)"/>
<use data-text="s" xlink:href="#p4-font_2_400" transform="matrix(11.04,0,0,-11.04,117.863529,82.46002)"/>
<use data-text="a" xlink:href="#p4-font_2_258" transform="matrix(11.04,0,0,-11.04,122.18017,82.46002)"/>
<use data-text="g" xlink:href="#p4-font_2_336" transform="matrix(11.04,0,0,-11.04,127.46833,82.46002)"/>
<use data-text="e" xlink:href="#p4-font_2_286" transform="matrix(11.04,0,0,-11.04,132.61296,82.46002)"/>
<use data-text=" " xlink:href="#p4-font_2_3" transform="matrix(11.04,0,0,-11.04,138.01152,82.46002)"/>
<use data-text="E" xlink:href="#p4-font_2_28" transform="matrix(11.04,0,0,-11.04,140.50656,82.46002)"/>
<use data-text="x" xlink:href="#p4-font_2_454" transform="matrix(11.04,0,0,-11.04,145.91617,82.46002)"/>
<use data-text="a" xlink:href="#p4-font_2_258" transform="matrix(11.04,0,0,-11.04,150.69649,82.46002)"/>
<use data-text="m" xlink:href="#p4-font_2_373" transform="matrix(11.04,0,0,-11.04,155.87425,82.46002)"/>
<use data-text="p" xlink:href="#p4-font_2_393" transform="matrix(11.04,0,0,-11.04,164.73937,82.46002)"/>
<use data-text="l" xlink:href="#p4-font_2_367" transform="matrix(11.04,0,0,-11.04,170.50225,82.46002)"/>
<use data-text="e" xlink:href="#p4-font_2_286" transform="matrix(11.04,0,0,-11.04,173.04145,82.46002)"/>
<use data-text="s" xlink:href="#p4-font_2_400" transform="matrix(11.04,0,0,-11.04,178.53937,82.46002)"/>
</g>
<g clip-path="url(#p4-clip_3)">
<use data-text=" " xlink:href="#p4-font_2_3" transform="matrix(11.04,0,0,-11.04,182.78,82.46002)"/>
</g>
<g clip-path="url(#p4-clip_4)">
<use data-text="." xlink:href="#p4-font_2_856" transform="matrix(11.04,0,0,-11.04,184.94,82.46002)"/>
<use data-text="." xlink:href="#p4-font_2_856" transform="matrix(11.04,0,0,-11.04,187.69998,82.46002)"/>
<use data-text="." xlink:href="#p4-font_2_856" transform="matrix(11.04,0,0,-11.04,190.45996,82.46002)"/>
<use data-text="." xlink:href="#p4-font_2_856" transform="matrix(11.04,0,0,-11.04,193.21994,82.46002)"/>
<use data-text="." xlink:href="#p4-font_2_856" transform="matrix(11.04,0,0,-11.04,195.97992,82.46002)"/>
<use data-text="." xlink:href="#p4-font_2_856" transform="matrix(11.04,0,0,-11.04,198.7399,82.46002)"/>
<use data-text="." xlink:href="#p4-font_2_856" transform="matrix(11.04,0,0,-11.04,201.49988,82.46002)"/>
<use data-text="." xlink:href="#p4-font_2_856" transform="matrix(11.04,0,0,-11.04,204.25986,82.46002)"/>
<use data-text="." xlink:href="#p4-font_2_856" transform="matrix(11.04,0,0,-11.04,207.01984,82.46002)"/>
<use data-text="." xlink:href="#p4-font_2_856" transform="matrix(11.04,0,0,-11.04,209.77982,82.46002)"/>
<use data-text="." xlink:href="#p4-font_2_856" transform="matrix(11.04,0,0,-11.04,212.5398,82.46002)"/>
<use data-text="." xlink:href="#p4-font_2_856" transform="matrix(11.04,0,0,-11.04,215.29978,82.46002)"/>
<use data-text="." xlink:href="#p4-font_2_856" transform="matrix(11.04,0,0,-11.04,218.05976,82.46002)"/>
<use data-text="." xlink:href="#p4-font_2_856" transform="matrix(11.04,0,0,-11.04,220.81974,82.46002)"/>
<use data-text="." xlink:href="#p4-font_2_856" transform="matrix(11.04,0,0,-11.04,223.57971,82.46002)"/>
<use data-text="." xlink:href="#p4-font_2_856" transform="matrix(11.04,0,0,-11.04,226.33969,82.46002)"/>
<use data-text="." xlink:href="#p4-font_2_856" transform="matrix(11.04,0,0,-11.04,229.09967,82.46002)"/>
<use data-text="." xlink:href="#p4-font_2_856" transform="matrix(11.04,0,0,-11.04,231.85965,82.46002)"/>
<use data-text="." xlink:href="#p4-font_2_856" transform="matrix(11.04,0,0,-11.04,234.61963,82.46002)"/>
<use data-text="." xlink:href="#p4-font_2_856" transform="matrix(11.04,0,0,-11.04,237.37961,82.46002)"/>
<use data-text="." xlink:href="#p4-font_2_856" transform="matrix(11.04,0,0,-11.04,240.13959,82.46002)"/>
<use data-text="." xlink:href="#p4-font_2_856" transform="matrix(11.04,0,0,-11.04,242.89957,82.46002)"/>
<use data-text="." xlink:href="#p4-font_2_856" transform="matrix(11.04,0,0,-11.04,245.65955,82.46002)"/>
<use data-text="." xlink:href="#p4-font_2_856" transform="matrix(11.04,0,0,-11.04,248.41953,82.46002)"/>
<use data-text="." xlink:href="#p4-font_2_856" transform="matrix(11.04,0,0,-11.04,251.1795,82.46002)"/>
<use data-text="." xlink:href="#p4-font_2_856" transform="matrix(11.04,0,0,-11.04,253.93949,82.46002)"/>
<use data-text="." xlink:href="#p4-font_2_856" transform="matrix(11.04,0,0,-11.04,256.69947,82.46002)"/>
<use data-text="." xlink:href="#p4-font_2_856" transform="matrix(11.04,0,0,-11.04,259.45945,82.46002)"/>
<use data-text="." xlink:href="#p4-font_2_856" transform="matrix(11.04,0,0,-11.04,262.21943,82.46002)"/>
<use data-text="." xlink:href="#p4-font_2_856" transform="matrix(11.04,0,0,-11.04,264.9794,82.46002)"/>
<use data-text="." xlink:href="#p4-font_2_856" transform="matrix(11.04,0,0,-11.04,267.73939,82.46002)"/>
<use data-text="." xlink:href="#p4-font_2_856" transform="matrix(11.04,0,0,-11.04,270.49937,82.46002)"/>
</g>
<g clip-path="url(#p4-clip_5)">
<use data-text="." xlink:href="#p4-font_2_856" transform="matrix(11.04,0,0,-11.04,273.29,82.46002)"/>
<use data-text="." xlink:href="#p4-font_2_856" transform="matrix(11.04,0,0,-11.04,276.05,82.46002)"/>
<use data-text="." xlink:href="#p4-font_2_856" transform="matrix(11.04,0,0,-11.04,278.80998,82.46002)"/>
<use data-text="." xlink:href="#p4-font_2_856" transform="matrix(11.04,0,0,-11.04,281.56996,82.46002)"/>
<use data-text="." xlink:href="#p4-font_2_856" transform="matrix(11.04,0,0,-11.04,284.32994,82.46002)"/>
<use data-text="." xlink:href="#p4-font_2_856" transform="matrix(11.04,0,0,-11.04,287.0899,82.46002)"/>
<use data-text="." xlink:href="#p4-font_2_856" transform="matrix(11.04,0,0,-11.04,289.84989,82.46002)"/>
<use data-text="." xlink:href="#p4-font_2_856" transform="matrix(11.04,0,0,-11.04,292.60987,82.46002)"/>
<use data-text="." xlink:href="#p4-font_2_856" transform="matrix(11.04,0,0,-11.04,295.36985,82.46002)"/>
<use data-text="." xlink:href="#p4-font_2_856" transform="matrix(11.04,0,0,-11.04,298.12983,82.46002)"/>
<use data-text="." xlink:href="#p4-font_2_856" transform="matrix(11.04,0,0,-11.04,300.8898,82.46002)"/>
<use data-text="." xlink:href="#p4-font_2_856" transform="matrix(11.04,0,0,-11.04,303.64979,82.46002)"/>
<use data-text="." xlink:href="#p4-font_2_856" transform="matrix(11.04,0,0,-11.04,306.40977,82.46002)"/>
<use data-text="." xlink:href="#p4-font_2_856" transform="matrix(11.04,0,0,-11.04,309.16975,82.46002)"/>
<use data-text="." xlink:href="#p4-font_2_856" transform="matrix(11.04,0,0,-11.04,311.92973,82.46002)"/>
<use data-text="." xlink:href="#p4-font_2_856" transform="matrix(11.04,0,0,-11.04,314.6897,82.46002)"/>
<use data-text="." xlink:href="#p4-font_2_856" transform="matrix(11.04,0,0,-11.04,317.44969,82.46002)"/>
<use data-text="." xlink:href="#p4-font_2_856" transform="matrix(11.04,0,0,-11.04,320.20967,82.46002)"/>
<use data-text="." xlink:href="#p4-font_2_856" transform="matrix(11.04,0,0,-11.04,322.96965,82.46002)"/>
<use data-text="." xlink:href="#p4-font_2_856" transform="matrix(11.04,0,0,-11.04,325.7296,82.46002)"/>
<use data-text="." xlink:href="#p4-font_2_856" transform="matrix(11.04,0,0,-11.04,328.4896,82.46002)"/>
<use data-text="." xlink:href="#p4-font_2_856" transform="matrix(11.04,0,0,-11.04,331.24958,82.46002)"/>
<use data-text="." xlink:href="#p4-font_2_856" transform="matrix(11.04,0,0,-11.04,334.00956,82.46002)"/>
<use data-text="." xlink:href="#p4-font_2_856" transform="matrix(11.04,0,0,-11.04,336.76954,82.46002)"/>
<use data-text="." xlink:href="#p4-font_2_856" transform="matrix(11.04,0,0,-11.04,339.5295,82.46002)"/>
<use data-text="." xlink:href="#p4-font_2_856" transform="matrix(11.04,0,0,-11.04,342.2895,82.46002)"/>
<use data-text="." xlink:href="#p4-font_2_856" transform="matrix(11.04,0,0,-11.04,345.04948,82.46002)"/>
<use data-text="." xlink:href="#p4-font_2_856" transform="matrix(11.04,0,0,-11.04,347.80946,82.46002)"/>
<use data-text="." xlink:href="#p4-font_2_856" transform="matrix(11.04,0,0,-11.04,350.56944,82.46002)"/>
<use data-text="." xlink:href="#p4-font_2_856" transform="matrix(11.04,0,0,-11.04,353.3294,82.46002)"/>
<use data-text="." xlink:href="#p4-font_2_856" transform="matrix(11.04,0,0,-11.04,356.0894,82.46002)"/>
<use data-text="." xlink:href="#p4-font_2_856" transform="matrix(11.04,0,0,-11.04,358.84938,82.46002)"/>
</g>
<g clip-path="url(#p4-clip_6)">
<use data-text="." xlink:href="#p4-font_2_856" transform="matrix(11.04,0,0,-11.04,361.63,82.46002)"/>
<use data-text="." xlink:href="#p4-font_2_856" transform="matrix(11.04,0,0,-11.04,364.38999,82.46002)"/>
<use data-text="." xlink:href="#p4-font_2_856" transform="matrix(11.04,0,0,-11.04,367.14997,82.46002)"/>
<use data-text="." xlink:href="#p4-font_2_856" transform="matrix(11.04,0,0,-11.04,369.90995,82.46002)"/>
<use data-text="." xlink:href="#p4-font_2_856" transform="matrix(11.04,0,0,-11.04,372.66993,82.46002)"/>
<use data-text="." xlink:href="#p4-font_2_856" transform="matrix(11.04,0,0,-11.04,375.4299,82.46002)"/>
<use data-text="." xlink:href="#p4-font_2_856" transform="matrix(11.04,0,0,-11.04,378.18989,82.46002)"/>
<use data-text="." xlink:href="#p4-font_2_856" transform="matrix(11.04,0,0,-11.04,380.94987,82.46002)"/>
<use data-text="." xlink:href="#p4-font_2_856" transform="matrix(11.04,0,0,-11.04,383.70985,82.46002)"/>
<use data-text="." xlink:href="#p4-font_2_856" transform="matrix(11.04,0,0,-11.04,386.46983,82.46002)"/>
<use data-text="." xlink:href="#p4-font_2_856" transform="matrix(11.04,0,0,-11.04,389.2298,82.46002)"/>
<use data-text="." xlink:href="#p4-font_2_856" transform="matrix(11.04,0,0,-11.04,391.98979,82.46002)"/>
<use data-text="." xlink:href="#p4-font_2_856" transform="matrix(11.04,0,0,-11.04,394.74977,82.46002)"/>
<use data-text="." xlink:href="#p4-font_2_856" transform="matrix(11.04,0,0,-11.04,397.50975,82.46002)"/>
<use data-text="." xlink:href="#p4-font_2_856" transform="matrix(11.04,0,0,-11.04,400.2697,82.46002)"/>
<use data-text="." xlink:href="#p4-font_2_856" transform="matrix(11.04,0,0,-11.04,403.0297,82.46002)"/>
<use data-text="." xlink:href="#p4-font_2_856" transform="matrix(11.04,0,0,-11.04,405.78968,82.46002)"/>
<use data-text="." xlink:href="#p4-font_2_856" transform="matrix(11.04,0,0,-11.04,408.54966,82.46002)"/>
<use data-text="." xlink:href="#p4-font_2_856" transform="matrix(11.04,0,0,-11.04,411.30964,82.46002)"/>
<use data-text="." xlink:href="#p4-font_2_856" transform="matrix(11.04,0,0,-11.04,414.0696,82.46002)"/>
<use data-text="." xlink:href="#p4-font_2_856" transform="matrix(11.04,0,0,-11.04,416.8296,82.46002)"/>
<use data-text="." xlink:href="#p4-font_2_856" transform="matrix(11.04,0,0,-11.04,419.58958,82.46002)"/>
<use data-text="." xlink:href="#p4-font_2_856" transform="matrix(11.04,0,0,-11.04,422.34956,82.46002)"/>
<use data-text="." xlink:href="#p4-font_2_856" transform="matrix(11.04,0,0,-11.04,425.10954,82.46002)"/>
<use data-text="." xlink:href="#p4-font_2_856" transform="matrix(11.04,0,0,-11.04,427.8695,82.46002)"/>
<use data-text="." xlink:href="#p4-font_2_856" transform="matrix(11.04,0,0,-11.04,430.6295,82.46002)"/>
<use data-text="." xlink:href="#p4-font_2_856" transform="matrix(11.04,0,0,-11.04,433.38948,82.46002)"/>
<use data-text="." xlink:href="#p4-font_2_856" transform="matrix(11.04,0,0,-11.04,436.14945,82.46002)"/>
<use data-text="." xlink:href="#p4-font_2_856" transform="matrix(11.04,0,0,-11.04,438.90943,82.46002)"/>
<use data-text="." xlink:href="#p4-font_2_856" transform="matrix(11.04,0,0,-11.04,441.6694,82.46002)"/>
<use data-text="." xlink:href="#p4-font_2_856" transform="matrix(11.04,0,0,-11.04,444.42939,82.46002)"/>
<use data-text="." xlink:href="#p4-font_2_856" transform="matrix(11.04,0,0,-11.04,447.18937,82.46002)"/>
</g>
<g clip-path="url(#p4-clip_7)">
<use data-text="." xlink:href="#p4-font_2_856" transform="matrix(11.04,0,0,-11.04,449.98,82.46002)"/>
<use data-text="." xlink:href="#p4-font_2_856" transform="matrix(11.04,0,0,-11.04,452.74,82.46002)"/>
<use data-text="." xlink:href="#p4-font_2_856" transform="matrix(11.04,0,0,-11.04,455.49998,82.46002)"/>
<use data-text="." xlink:href="#p4-font_2_856" transform="matrix(11.04,0,0,-11.04,458.25996,82.46002)"/>
<use data-text="." xlink:href="#p4-font_2_856" transform="matrix(11.04,0,0,-11.04,461.01994,82.46002)"/>
<use data-text="." xlink:href="#p4-font_2_856" transform="matrix(11.04,0,0,-11.04,463.7799,82.46002)"/>
<use data-text="." xlink:href="#p4-font_2_856" transform="matrix(11.04,0,0,-11.04,466.5399,82.46002)"/>
<use data-text="." xlink:href="#p4-font_2_856" transform="matrix(11.04,0,0,-11.04,469.29988,82.46002)"/>
<use data-text="." xlink:href="#p4-font_2_856" transform="matrix(11.04,0,0,-11.04,472.05986,82.46002)"/>
<use data-text="." xlink:href="#p4-font_2_856" transform="matrix(11.04,0,0,-11.04,474.81983,82.46002)"/>
<use data-text="." xlink:href="#p4-font_2_856" transform="matrix(11.04,0,0,-11.04,477.5798,82.46002)"/>
<use data-text="." xlink:href="#p4-font_2_856" transform="matrix(11.04,0,0,-11.04,480.33979,82.46002)"/>
<use data-text="." xlink:href="#p4-font_2_856" transform="matrix(11.04,0,0,-11.04,483.09977,82.46002)"/>
<use data-text="." xlink:href="#p4-font_2_856" transform="matrix(11.04,0,0,-11.04,485.85975,82.46002)"/>
<use data-text="." xlink:href="#p4-font_2_856" transform="matrix(11.04,0,0,-11.04,488.61973,82.46002)"/>
<use data-text="." xlink:href="#p4-font_2_856" transform="matrix(11.04,0,0,-11.04,491.3797,82.46002)"/>
<use data-text="." xlink:href="#p4-font_2_856" transform="matrix(11.04,0,0,-11.04,494.13969,82.46002)"/>
<use data-text="." xlink:href="#p4-font_2_856" transform="matrix(11.04,0,0,-11.04,496.89967,82.46002)"/>
<use data-text="." xlink:href="#p4-font_2_856" transform="matrix(11.04,0,0,-11.04,499.65965,82.46002)"/>
<use data-text="." xlink:href="#p4-font_2_856" transform="matrix(11.04,0,0,-11.04,502.41963,82.46002)"/>
<use data-text="." xlink:href="#p4-font_2_856" transform="matrix(11.04,0,0,-11.04,505.1796,82.46002)"/>
<use data-text="." xlink:href="#p4-font_2_856" transform="matrix(11.04,0,0,-11.04,507.93959,82.46002)"/>
<use data-text="." xlink:href="#p4-font_2_856" transform="matrix(11.04,0,0,-11.04,510.69956,82.46002)"/>
<use data-text="." xlink:href="#p4-font_2_856" transform="matrix(11.04,0,0,-11.04,513.45956,82.46002)"/>
<use data-text="." xlink:href="#p4-font_2_856" transform="matrix(11.04,0,0,-11.04,516.21957,82.46002)"/>
<use data-text="." xlink:href="#p4-font_2_856" transform="matrix(11.04,0,0,-11.04,518.97958,82.46002)"/>
<use data-text="." xlink:href="#p4-font_2_856" transform="matrix(11.04,0,0,-11.04,521.73959,82.46002)"/>
<use data-text="." xlink:href="#p4-font_2_856" transform="matrix(11.04,0,0,-11.04,524.4996,82.46002)"/>
</g>
<g clip-path="url(#p4-clip_8)">
<use data-text=" " xlink:href="#p4-font_2_3" transform="matrix(11.04,0,0,-11.04,527.26,82.46002)"/>
</g>
<g clip-path="url(#p4-clip_9)">
<use data-text="3" xlink:href="#p4-font_2_1007" transform="matrix(11.04,0,0,-11.04,528.46,82.46002)"/>
<use data-text="0" xlink:href="#p4-font_2_1004" transform="matrix(11.04,0,0,-11.04,534.1,82.46002)"/>
</g>
<g clip-path="url(#p4-clip_10)">
<use data-text=" " xlink:href="#p4-font_2_3" transform="matrix(11.04,0,0,-11.04,539.62,82.46002)"/>
</g>
<g clip-path="url(#p4-clip_11)">
</g>
<g clip-path="url(#p4-clip_12)">
<use data-text="C" xlink:href="#p4-font_2_18" transform="matrix(11.04,0,0,-11.04,93.984,102.859989)"/>
<use data-text="." xlink:href="#p4-font_2_856" transform="matrix(11.04,0,0,-11.04,99.868328,102.859989)"/>
<use data-text="2" xlink:href="#p4-font_2_1006" transform="matrix(11.04,0,0,-11.04,102.650409,102.859989)"/>
<use data-text=" " xlink:href="#p4-font_2_3" transform="matrix(11.04,0,0,-11.04,108.24769,102.859989)"/>
<use data-text="C" xlink:href="#p4-font_2_18" transform="matrix(11.04,0,0,-11.04,110.77585,102.859989)"/>
<use data-text="o" xlink:href="#p4-font_2_381" transform="matrix(11.04,0,0,-11.04,116.538738,102.859989)"/>
<use data-text="n" xlink:href="#p4-font_2_374" transform="matrix(11.04,0,0,-11.04,122.41201,102.859989)"/>
<use data-text="f" xlink:href="#p4-font_2_296" transform="matrix(11.04,0,0,-11.04,128.17488,102.859989)"/>
<use data-text="i" xlink:href="#p4-font_2_349" transform="matrix(11.04,0,0,-11.04,131.54209,102.859989)"/>
<use data-text="g" xlink:href="#p4-font_2_336" transform="matrix(11.04,0,0,-11.04,134.08129,102.859989)"/>
<use data-text="u" xlink:href="#p4-font_2_437" transform="matrix(11.04,0,0,-11.04,139.21489,102.859989)"/>
<use data-text="r" xlink:href="#p4-font_2_396" transform="matrix(11.04,0,0,-11.04,144.97777,102.859989)"/>
<use data-text="a" xlink:href="#p4-font_2_258" transform="matrix(11.04,0,0,-11.04,148.83074,102.859989)"/>
<use data-text="t" xlink:href="#p4-font_2_410" transform="matrix(11.04,0,0,-11.04,154.1189,102.859989)"/>
<use data-text="i" xlink:href="#p4-font_2_349" transform="matrix(11.04,0,0,-11.04,157.81729,102.859989)"/>
<use data-text="o" xlink:href="#p4-font_2_381" transform="matrix(11.04,0,0,-11.04,160.35649,102.859989)"/>
<use data-text="n" xlink:href="#p4-font_2_374" transform="matrix(11.04,0,0,-11.04,166.2077,102.859989)"/>
<use data-text=" " xlink:href="#p4-font_2_3" transform="matrix(11.04,0,0,-11.04,171.97058,102.859989)"/>
<use data-text="D" xlink:href="#p4-font_2_24" transform="matrix(11.04,0,0,-11.04,174.36626,102.859989)"/>
<use data-text="a" xlink:href="#p4-font_2_258" transform="matrix(11.04,0,0,-11.04,181.20001,102.859989)"/>
<use data-text="t" xlink:href="#p4-font_2_410" transform="matrix(11.04,0,0,-11.04,186.48818,102.859989)"/>
<use data-text="a" xlink:href="#p4-font_2_258" transform="matrix(11.04,0,0,-11.04,190.18657,102.859989)"/>
</g>
<g clip-path="url(#p4-clip_13)">
<use data-text=" " xlink:href="#p4-font_2_3" transform="matrix(11.04,0,0,-11.04,195.41,102.859989)"/>
</g>
<g clip-path="url(#p4-clip_14)">
<use data-text="." xlink:href="#p4-font_2_856" transform="matrix(11.04,0,0,-11.04,196.01,102.859989)"/>
<use data-text="." xlink:href="#p4-font_2_856" transform="matrix(11.04,0,0,-11.04,198.76998,102.859989)"/>
<use data-text="." xlink:href="#p4-font_2_856" transform="matrix(11.04,0,0,-11.04,201.52996,102.859989)"/>
<use data-text="." xlink:href="#p4-font_2_856" transform="matrix(11.04,0,0,-11.04,204.28993,102.859989)"/>
<use data-text="." xlink:href="#p4-font_2_856" transform="matrix(11.04,0,0,-11.04,207.04991,102.859989)"/>
<use data-text="." xlink:href="#p4-font_2_856" transform="matrix(11.04,0,0,-11.04,209.80989,102.859989)"/>
<use data-text="." xlink:href="#p4-font_2_856" transform="matrix(11.04,0,0,-11.04,212.56987,102.859989)"/>
<use data-text="." xlink:href="#p4-font_2_856" transform="matrix(11.04,0,0,-11.04,215.32985,102.859989)"/>
<use data-text="." xlink:href="#p4-font_2_856" transform="matrix(11.04,0,0,-11.04,218.08983,102.859989)"/>
<use data-text="." xlink:href="#p4-font_2_856" transform="matrix(11.04,0,0,-11.04,220.84981,102.859989)"/>
<use data-text="." xlink:href="#p4-font_2_856" transform="matrix(11.04,0,0,-11.04,223.60979,102.859989)"/>
<use data-text="." xlink:href="#p4-font_2_856" transform="matrix(11.04,0,0,-11.04,226.36977,102.859989)"/>
<use data-text="." xlink:href="#p4-font_2_856" transform="matrix(11.04,0,0,-11.04,229.12975,102.859989)"/>
<use data-text="." xlink:href="#p4-font_2_856" transform="matrix(11.04,0,0,-11.04,231.88973,102.859989)"/>
<use data-text="." xlink:href="#p4-font_2_856" transform="matrix(11.04,0,0,-11.04,234.6497,102.859989)"/>
<use data-text="." xlink:href="#p4-font_2_856" transform="matrix(11.04,0,0,-11.04,237.40969,102.859989)"/>
<use data-text="." xlink:href="#p4-font_2_856" transform="matrix(11.04,0,0,-11.04,240.16967,102.859989)"/>
<use data-text="." xlink:href="#p4-font_2_856" transform="matrix(11.04,0,0,-11.04,242.92964,102.859989)"/>
<use data-text="." xlink:href="#p4-font_2_856" transform="matrix(11.04,0,0,-11.04,245.68962,102.859989)"/>
<use data-text="." xlink:href="#p4-font_2_856" transform="matrix(11.04,0,0,-11.04,248.4496,102.859989)"/>
<use data-text="." xlink:href="#p4-font_2_856" transform="matrix(11.04,0,0,-11.04,251.20958,102.859989)"/>
<use data-text="." xlink:href="#p4-font_2_856" transform="matrix(11.04,0,0,-11.04,253.96956,102.859989)"/>
<use data-text="." xlink:href="#p4-font_2_856" transform="matrix(11.04,0,0,-11.04,256.72956,102.859989)"/>
<use data-text="." xlink:href="#p4-font_2_856" transform="matrix(11.04,0,0,-11.04,259.48954,102.859989)"/>
<use data-text="." xlink:href="#p4-font_2_856" transform="matrix(11.04,0,0,-11.04,262.2495,102.859989)"/>
<use data-text="." xlink:href="#p4-font_2_856" transform="matrix(11.04,0,0,-11.04,265.0095,102.859989)"/>
<use data-text="." xlink:href="#p4-font_2_856" transform="matrix(11.04,0,0,-11.04,267.76948,102.859989)"/>
<use data-text="." xlink:href="#p4-font_2_856" transform="matrix(11.04,0,0,-11.04,270.52946,102.859989)"/>
<use data-text="." xlink:href="#p4-font_2_856" transform="matrix(11.04,0,0,-11.04,273.28944,102.859989)"/>
<use data-text="." xlink:href="#p4-font_2_856" transform="matrix(11.04,0,0,-11.04,276.0494,102.859989)"/>
<use data-text="." xlink:href="#p4-font_2_856" transform="matrix(11.04,0,0,-11.04,278.8094,102.859989)"/>
<use data-text="." xlink:href="#p4-font_2_856" transform="matrix(11.04,0,0,-11.04,281.56938,102.859989)"/>
</g>
<g clip-path="url(#p4-clip_15)">
<use data-text="." xlink:href="#p4-font_2_856" transform="matrix(11.04,0,0,-11.04,284.33,102.859989)"/>
<use data-text="." xlink:href="#p4-font_2_856" transform="matrix(11.04,0,0,-11.04,287.08998,102.859989)"/>
<use data-text="." xlink:href="#p4-font_2_856" transform="matrix(11.04,0,0,-11.04,289.84996,102.859989)"/>
<use data-text="." xlink:href="#p4-font_2_856" transform="matrix(11.04,0,0,-11.04,292.60993,102.859989)"/>
<use data-text="." xlink:href="#p4-font_2_856" transform="matrix(11.04,0,0,-11.04,295.3699,102.859989)"/>
<use data-text="." xlink:href="#p4-font_2_856" transform="matrix(11.04,0,0,-11.04,298.12989,102.859989)"/>
<use data-text="." xlink:href="#p4-font_2_856" transform="matrix(11.04,0,0,-11.04,300.88987,102.859989)"/>
<use data-text="." xlink:href="#p4-font_2_856" transform="matrix(11.04,0,0,-11.04,303.64985,102.859989)"/>
<use data-text="." xlink:href="#p4-font_2_856" transform="matrix(11.04,0,0,-11.04,306.40983,102.859989)"/>
<use data-text="." xlink:href="#p4-font_2_856" transform="matrix(11.04,0,0,-11.04,309.1698,102.859989)"/>
<use data-text="." xlink:href="#p4-font_2_856" transform="matrix(11.04,0,0,-11.04,311.92979,102.859989)"/>
<use data-text="." xlink:href="#p4-font_2_856" transform="matrix(11.04,0,0,-11.04,314.68977,102.859989)"/>
<use data-text="." xlink:href="#p4-font_2_856" transform="matrix(11.04,0,0,-11.04,317.44975,102.859989)"/>
<use data-text="." xlink:href="#p4-font_2_856" transform="matrix(11.04,0,0,-11.04,320.20973,102.859989)"/>
<use data-text="." xlink:href="#p4-font_2_856" transform="matrix(11.04,0,0,-11.04,322.9697,102.859989)"/>
<use data-text="." xlink:href="#p4-font_2_856" transform="matrix(11.04,0,0,-11.04,325.72969,102.859989)"/>
<use data-text="." xlink:href="#p4-font_2_856" transform="matrix(11.04,0,0,-11.04,328.48966,102.859989)"/>
<use data-text="." xlink:href="#p4-font_2_856" transform="matrix(11.04,0,0,-11.04,331.24964,102.859989)"/>
<use data-text="." xlink:href="#p4-font_2_856" transform="matrix(11.04,0,0,-11.04,334.0096,102.859989)"/>
<use data-text="." xlink:href="#p4-font_2_856" transform="matrix(11.04,0,0,-11.04,336.7696,102.859989)"/>
<use data-text="." xlink:href="#p4-font_2_856" transform="matrix(11.04,0,0,-11.04,339.52958,102.859989)"/>
<use data-text="." xlink:href="#p4-font_2_856" transform="matrix(11.04,0,0,-11.04,342.28956,102.859989)"/>
<use data-text="." xlink:href="#p4-font_2_856" transform="matrix(11.04,0,0,-11.04,345.04954,102.859989)"/>
<use data-text="." xlink:href="#p4-font_2_856" transform="matrix(11.04,0,0,-11.04,347.8095,102.859989)"/>
<use data-text="." xlink:href="#p4-font_2_856" transform="matrix(11.04,0,0,-11.04,350.5695,102.859989)"/>
<use data-text="." xlink:href="#p4-font_2_856" transform="matrix(11.04,0,0,-11.04,353.32948,102.859989)"/>
<use data-text="." xlink:href="#p4-font_2_856" transform="matrix(11.04,0,0,-11.04,356.08946,102.859989)"/>
<use data-text="." xlink:href="#p4-font_2_856" transform="matrix(11.04,0,0,-11.04,358.84944,102.859989)"/>
<use data-text="." xlink:href="#p4-font_2_856" transform="matrix(11.04,0,0,-11.04,361.6094,102.859989)"/>
<use data-text="." xlink:href="#p4-font_2_856" transform="matrix(11.04,0,0,-11.04,364.3694,102.859989)"/>
<use data-text="." xlink:href="#p4-font_2_856" transform="matrix(11.04,0,0,-11.04,367.12937,102.859989)"/>
<use data-text="." xlink:href="#p4-font_2_856" transform="matrix(11.04,0,0,-11.04,369.88935,102.859989)"/>
</g>
<g clip-path="url(#p4-clip_16)">
<use data-text="." xlink:href="#p4-font_2_856" transform="matrix(11.04,0,0,-11.04,372.67,102.859989)"/>
<use data-text="." xlink:href="#p4-font_2_856" transform="matrix(11.04,0,0,-11.04,375.43,102.859989)"/>
<use data-text="." xlink:href="#p4-font_2_856" transform="matrix(11.04,0,0,-11.04,378.18998,102.859989)"/>
<use data-text="." xlink:href="#p4-font_2_856" transform="matrix(11.04,0,0,-11.04,380.94996,102.859989)"/>
<use data-text="." xlink:href="#p4-font_2_856" transform="matrix(11.04,0,0,-11.04,383.70994,102.859989)"/>
<use data-text="." xlink:href="#p4-font_2_856" transform="matrix(11.04,0,0,-11.04,386.4699,102.859989)"/>
<use data-text="." xlink:href="#p4-font_2_856" transform="matrix(11.04,0,0,-11.04,389.2299,102.859989)"/>
<use data-text="." xlink:href="#p4-font_2_856" transform="matrix(11.04,0,0,-11.04,391.98988,102.859989)"/>
<use data-text="." xlink:href="#p4-font_2_856" transform="matrix(11.04,0,0,-11.04,394.74986,102.859989)"/>
<use data-text="." xlink:href="#p4-font_2_856" transform="matrix(11.04,0,0,-11.04,397.50984,102.859989)"/>
<use data-text="." xlink:href="#p4-font_2_856" transform="matrix(11.04,0,0,-11.04,400.2698,102.859989)"/>
<use data-text="." xlink:href="#p4-font_2_856" transform="matrix(11.04,0,0,-11.04,403.0298,102.859989)"/>
<use data-text="." xlink:href="#p4-font_2_856" transform="matrix(11.04,0,0,-11.04,405.78977,102.859989)"/>
<use data-text="." xlink:href="#p4-font_2_856" transform="matrix(11.04,0,0,-11.04,408.54975,102.859989)"/>
<use data-text="." xlink:href="#p4-font_2_856" transform="matrix(11.04,0,0,-11.04,411.30973,102.859989)"/>
<use data-text="." xlink:href="#p4-font_2_856" transform="matrix(11.04,0,0,-11.04,414.0697,102.859989)"/>
<use data-text="." xlink:href="#p4-font_2_856" transform="matrix(11.04,0,0,-11.04,416.82969,102.859989)"/>
<use data-text="." xlink:href="#p4-font_2_856" transform="matrix(11.04,0,0,-11.04,419.58967,102.859989)"/>
<use data-text="." xlink:href="#p4-font_2_856" transform="matrix(11.04,0,0,-11.04,422.34965,102.859989)"/>
<use data-text="." xlink:href="#p4-font_2_856" transform="matrix(11.04,0,0,-11.04,425.10963,102.859989)"/>
<use data-text="." xlink:href="#p4-font_2_856" transform="matrix(11.04,0,0,-11.04,427.8696,102.859989)"/>
<use data-text="." xlink:href="#p4-font_2_856" transform="matrix(11.04,0,0,-11.04,430.62959,102.859989)"/>
<use data-text="." xlink:href="#p4-font_2_856" transform="matrix(11.04,0,0,-11.04,433.38957,102.859989)"/>
<use data-text="." xlink:href="#p4-font_2_856" transform="matrix(11.04,0,0,-11.04,436.14955,102.859989)"/>
<use data-text="." xlink:href="#p4-font_2_856" transform="matrix(11.04,0,0,-11.04,438.90953,102.859989)"/>
<use data-text="." xlink:href="#p4-font_2_856" transform="matrix(11.04,0,0,-11.04,441.6695,102.859989)"/>
<use data-text="." xlink:href="#p4-font_2_856" transform="matrix(11.04,0,0,-11.04,444.42948,102.859989)"/>
<use data-text="." xlink:href="#p4-font_2_856" transform="matrix(11.04,0,0,-11.04,447.18946,102.859989)"/>
<use data-text="." xlink:href="#p4-font_2_856" transform="matrix(11.04,0,0,-11.04,449.94944,102.859989)"/>
<use data-text="." xlink:href="#p4-font_2_856" transform="matrix(11.04,0,0,-11.04,452.7094,102.859989)"/>
<use data-text="." xlink:href="#p4-font_2_856" transform="matrix(11.04,0,0,-11.04,455.4694,102.859989)"/>
<use data-text="." xlink:href="#p4-font_2_856" transform="matrix(11.04,0,0,-11.04,458.22938,102.859989)"/>
</g>
<g clip-path="url(#p4-clip_17)">
<use data-text="." xlink:href="#p4-font_2_856" transform="matrix(11.04,0,0,-11.04,461.02,102.859989)"/>
<use data-text="." xlink:href="#p4-font_2_856" transform="matrix(11.04,0,0,-11.04,463.77998,102.859989)"/>
<use data-text="." xlink:href="#p4-font_2_856" transform="matrix(11.04,0,0,-11.04,466.53996,102.859989)"/>
<use data-text="." xlink:href="#p4-font_2_856" transform="matrix(11.04,0,0,-11.04,469.29994,102.859989)"/>
<use data-text="." xlink:href="#p4-font_2_856" transform="matrix(11.04,0,0,-11.04,472.0599,102.859989)"/>
<use data-text="." xlink:href="#p4-font_2_856" transform="matrix(11.04,0,0,-11.04,474.8199,102.859989)"/>
<use data-text="." xlink:href="#p4-font_2_856" transform="matrix(11.04,0,0,-11.04,477.57987,102.859989)"/>
<use data-text="." xlink:href="#p4-font_2_856" transform="matrix(11.04,0,0,-11.04,480.33985,102.859989)"/>
<use data-text="." xlink:href="#p4-font_2_856" transform="matrix(11.04,0,0,-11.04,483.09983,102.859989)"/>
<use data-text="." xlink:href="#p4-font_2_856" transform="matrix(11.04,0,0,-11.04,485.8598,102.859989)"/>
<use data-text="." xlink:href="#p4-font_2_856" transform="matrix(11.04,0,0,-11.04,488.61979,102.859989)"/>
<use data-text="." xlink:href="#p4-font_2_856" transform="matrix(11.04,0,0,-11.04,491.37977,102.859989)"/>
<use data-text="." xlink:href="#p4-font_2_856" transform="matrix(11.04,0,0,-11.04,494.13975,102.859989)"/>
<use data-text="." xlink:href="#p4-font_2_856" transform="matrix(11.04,0,0,-11.04,496.89973,102.859989)"/>
<use data-text="." xlink:href="#p4-font_2_856" transform="matrix(11.04,0,0,-11.04,499.6597,102.859989)"/>
<use data-text="." xlink:href="#p4-font_2_856" transform="matrix(11.04,0,0,-11.04,502.41969,102.859989)"/>
<use data-text="." xlink:href="#p4-font_2_856" transform="matrix(11.04,0,0,-11.04,505.17967,102.859989)"/>
<use data-text="." xlink:href="#p4-font_2_856" transform="matrix(11.04,0,0,-11.04,507.93965,102.859989)"/>
<use data-text="." xlink:href="#p4-font_2_856" transform="matrix(11.04,0,0,-11.04,510.69963,102.859989)"/>
<use data-text="." xlink:href="#p4-font_2_856" transform="matrix(11.04,0,0,-11.04,513.4596,102.859989)"/>
<use data-text="." xlink:href="#p4-font_2_856" transform="matrix(11.04,0,0,-11.04,516.2196,102.859989)"/>
<use data-text="." xlink:href="#p4-font_2_856" transform="matrix(11.04,0,0,-11.04,518.9796,102.859989)"/>
<use data-text="." xlink:href="#p4-font_2_856" transform="matrix(11.04,0,0,-11.04,521.7396,102.859989)"/>
<use data-text="." xlink:href="#p4-font_2_856" transform="matrix(11.04,0,0,-11.04,524.49966,102.859989)"/>
</g>
<g clip-path="url(#p4-clip_18)">
<use data-text=" " xlink:href="#p4-font_2_3" transform="matrix(11.04,0,0,-11.04,527.26,102.859989)"/>
</g>
<g clip-path="url(#p4-clip_19)">
<use data-text="3" xlink:href="#p4-font_2_1007" transform="matrix(11.04,0,0,-11.04,528.46,102.859989)"/>
<use data-text="0" xlink:href="#p4-font_2_1004" transform="matrix(11.04,0,0,-11.04,534.1,102.859989)"/>
</g>
<g clip-path="url(#p4-clip_20)">
<use data-text=" " xlink:href="#p4-font_2_3" transform="matrix(11.04,0,0,-11.04,539.62,102.859989)"/>
</g>
<g clip-path="url(#p4-clip_21)">
</g>
<g clip-path="url(#p4-clip_22)">
<use data-text=" " xlink:href="#p4-font_2_3" transform="matrix(11.04,0,0,-11.04,72.024,123.380008)"/>
</g>
</g>

<g style="fill:transparent;pointer-events:none;" aria-hidden="true">
<text xml:space="preserve" transform="matrix(1 0 -0 1 0 792)" font-size="11.04" font-family="Calibri"><tspan y="-709.54" x="93.984 99.868328 102.650409 108.24769 110.77585 117.863529 122.18017 127.46833 132.61296 138.01152 140.50656 145.91617 150.69649 155.87425 164.73937 170.50225 173.04145 178.53937">C.1 Usage Examples</tspan></text>
<text xml:space="preserve" transform="matrix(1 0 -0 1 0 792)" font-size="11.04" font-family="Calibri"><tspan y="-709.54" x="182.78"> </tspan></text>
<text xml:space="preserve" transform="matrix(1 0 -0 1 0 792)" font-size="11.04" font-family="Calibri"><tspan y="-709.54" x="184.94 187.69998 190.45996 193.21994 195.97992 198.7399 201.49988 204.25986 207.01984 209.77982 212.5398 215.29978 218.05976 220.81974 223.57971 226.33969 229.09967 231.85965 234.61963 237.37961 240.13959 242.89957 245.65955 248.41953 251.1795 253.93949 256.69947 259.45945 262.21943 264.9794 267.73939 270.49937">................................</tspan></text>
<text xml:space="preserve" transform="matrix(1 0 -0 1 0 792)" font-size="11.04" font-family="Calibri"><tspan y="-709.54" x="273.29 276.05 278.80998 281.56996 284.32994 287.0899 289.84989 292.60987 295.36985 298.12983 300.8898 303.64979 306.40977 309.16975 311.92973 314.6897 317.44969 320.20967 322.96965 325.7296 328.4896 331.24958 334.00956 336.76954 339.5295 342.2895 345.04948 347.80946 350.56944 353.3294 356.0894 358.84938">................................</tspan></text>
<text xml:space="preserve" transform="matrix(1 0 -0 1 0 792)" font-size="11.04" font-family="Calibri"><tspan y="-709.54" x="361.63 364.38999 367.14997 369.90995 372.66993 375.4299 378.18989 380.94987 383.70985 386.46983 389.2298 391.98979 394.74977 397.50975 400.2697 403.0297 405.78968 408.54966 411.30964 414.0696 416.8296 419.58958 422.34956 425.10954 427.8695 430.6295 433.38948 436.14945 438.90943 441.6694 444.42939 447.18937">................................</tspan></text>
<text xml:space="preserve" transform="matrix(1 0 -0 1 0 792)" font-size="11.04" font-family="Calibri"><tspan y="-709.54" x="449.98 452.74 455.49998 458.25996 461.01994 463.7799 466.5399 469.29988 472.05986 474.81983 477.5798 480.33979 483.09977 485.85975 488.61973 491.3797 494.13969 496.89967 499.65965 502.41963 505.1796 507.93959 510.69956 513.45956 516.21957 518.97958 521.73959 524.4996">............................</tspan></text>
<text xml:space="preserve" transform="matrix(1 0 -0 1 0 792)" font-size="11.04" font-family="Calibri"><tspan y="-709.54" x="527.26"> </tspan></text>
<text xml:space="preserve" transform="matrix(1 0 -0 1 0 792)" font-size="11.04" font-family="Calibri"><tspan y="-709.54" x="528.46 534.1">30</tspan></text>
<text xml:space="preserve" transform="matrix(1 0 -0 1 0 792)" font-size="11.04" font-family="Calibri"><tspan y="-709.54" x="539.62"> </tspan></text>
<text xml:space="preserve" transform="matrix(1 0 -0 1 0 792)" font-size="11.04" font-family="Calibri"><tspan y="-689.14" x="93.984 99.868328 102.650409 108.24769 110.77585 116.538738 122.41201 128.17488 131.54209 134.08129 139.21489 144.97777 148.83074 154.1189 157.81729 160.35649 166.2077 171.97058 174.36626 181.20001 186.48818 190.18657">C.2 Configuration Data</tspan></text>
<text xml:space="preserve" transform="matrix(1 0 -0 1 0 792)" font-size="11.04" font-family="Calibri"><tspan y="-689.14" x="195.41"> </tspan></text>
<text xml:space="preserve" transform="matrix(1 0 -0 1 0 792)" font-size="11.04" font-family="Calibri"><tspan y="-689.14" x="196.01 198.76998 201.52996 204.28993 207.04991 209.80989 212.56987 215.32985 218.08983 220.84981 223.60979 226.36977 229.12975 231.88973 234.6497 237.40969 240.16967 242.92964 245.68962 248.4496 251.20958 253.96956 256.72956 259.48954 262.2495 265.0095 267.76948 270.52946 273.28944 276.0494 278.8094 281.56938">................................</tspan></text>
<text xml:space="preserve" transform="matrix(1 0 -0 1 0 792)" font-size="11.04" font-family="Calibri"><tspan y="-689.14" x="284.33 287.08998 289.84996 292.60993 295.3699 298.12989 300.88987 303.64985 306.40983 309.1698 311.92979 314.68977 317.44975 320.20973 322.9697 325.72969 328.48966 331.24964 334.0096 336.7696 339.52958 342.28956 345.04954 347.8095 350.5695 353.32948 356.08946 358.84944 361.6094 364.3694 367.12937 369.88935">................................</tspan></text>
<text xml:space="preserve" transform="matrix(1 0 -0 1 0 792)" font-size="11.04" font-family="Calibri"><tspan y="-689.14" x="372.67 375.43 378.18998 380.94996 383.70994 386.4699 389.2299 391.98988 394.74986 397.50984 400.2698 403.0298 405.78977 408.54975 411.30973 414.0697 416.82969 419.58967 422.34965 425.10963 427.8696 430.62959 433.38957 436.14955 438.90953 441.6695 444.42948 447.18946 449.94944 452.7094 455.4694 458.22938">................................</tspan></text>
<text xml:space="preserve" transform="matrix(1 0 -0 1 0 792)" font-size="11.04" font-family="Calibri"><tspan y="-689.14" x="461.02 463.77998 466.53996 469.29994 472.0599 474.8199 477.57987 480.33985 483.09983 485.8598 488.61979 491.37977 494.13975 496.89973 499.6597 502.41969 505.17967 507.93965 510.69963 513.4596 516.2196 518.9796 521.7396 524.49966">........................</tspan></text>
<text xml:space="preserve" transform="matrix(1 0 -0 1 0 792)" font-size="11.04" font-family="Calibri"><tspan y="-689.14" x="527.26"> </tspan></text>
<text xml:space="preserve" transform="matrix(1 0 -0 1 0 792)" font-size="11.04" font-family="Calibri"><tspan y="-689.14" x="528.46 534.1">30</tspan></text>
<text xml:space="preserve" transform="matrix(1 0 -0 1 0 792)" font-size="11.04" font-family="Calibri"><tspan y="-689.14" x="539.62"> </tspan></text>
<text xml:space="preserve" transform="matrix(1 0 -0 1 0 792)" font-size="11.04" font-family="Calibri"><tspan y="-668.62" x="72.024"> </tspan></text>
</g>
</svg>